<svg xmlns="http://www.w3.org/2000/svg" version="1.0" width="225.000000pt" height="225.000000pt" viewBox="0 0 225.000000 225.000000" preserveAspectRatio="xMidYMid meet">

<g transform="translate(0.000000,225.000000) scale(0.100000,-0.100000)" fill="#e0e0e6" stroke="none">
<path d="M449 1877 c-67 -28 -108 -56 -144 -99 -31 -36 -69 -110 -79 -153 -5 -19 -43 -66 -102 -126 -92 -95 -124 -144 -124 -194 0 -59 33 -102 229 -300 l199 -200 6 -54 c18 -143 104 -231 242 -247 47 -6 66 -14 95 -39 152 -136 390 -154 564 -44 27 17 109 90 183 162 l133 131 127 -127 c70 -70 132 -127 137 -127 6 0 84 74 175 165 l165 165 -54 54 c-70 71 -99 83 -159 67 -39 -10 -47 -9 -63 5 -16 15 -17 20 -5 33 8 10 24 96 40 216 27 211 31 255 19 255 -5 0 -35 5 -68 10 -75 12 -125 0 -158 -40 -14 -16 -27 -33 -29 -38 -2 -6 -56 -2 -128 9 -69 10 -131 19 -137 19 -9 0 -13 18 -13 58 0 110 -37 178 -115 213 -78 36 -168 13 -221 -57 -26 -34 -29 -46 -34 -138 l-5 -100 -50 2 c-43 3 -56 9 -90 43 l-40 39 -1 88 c-1 153 -66 263 -196 332 -56 30 -73 34 -153 37 -77 3 -98 0 -146 -20z m278 -58 c103 -50 173 -158 173 -269 0 -47 -2 -50 -42 -78 -71 -47 -145 -68 -204 -58 -26 5 -34 12 -34 27 0 33 -62 89 -99 89 -39 0 -51 26 -51 108 0 64 28 135 75 191 27 31 32 33 74 27 25 -3 74 -20 108 -37z m-263 -33 c-39 -78 -50 -149 -34 -217 11 -46 11 -52 -8 -72 -62 -66 -40 -170 42 -197 53 -17 128 9 141 50 5 15 19 19 88 21 63 3 94 10 135 30 28 14 52 23 52 19 0 -16 -60 -98 -90 -123 -90 -76 -215 -98 -324 -57 -71 27 -140 92 -176 165 -34 70 -35 188 -2 260 30 65 94 131 157 161 28 13 50 24 51 24 0 0 -14 -29 -32 -64z m915 -180 c15 -8 36 -26 45 -40 l16 -26 -132 0 -133 1 42 39 c37 35 48 40 88 40 25 0 59 -7 74 -14z m-1115 -250 c27 -47 103 -120 141 -138 22 -10 25 -18 25 -62 l0 -51 -157 157 -158 158 50 50 49 50 13 -61 c7 -33 23 -80 37 -103z m291 109 c30 -30 32 -64 4 -99 -40 -51 -129 -19 -129 46 0 36 40 78 75 78 14 0 37 -11 50 -25z m895 -33 l0 -59 -51 -23 c-47 -23 -100 -71 -112 -102 -3 -9 -23 5 -61 42 l-56 54 0 73 0 73 140 0 140 0 0 -58z m-123 -509 l-37 -38 -211 211 -210 210 27 48 27 48 221 -221 221 -221 -38 -37z m-1135 275 l-43 -43 -49 52 c-44 46 -50 56 -50 95 0 24 7 54 16 67 l17 23 76 -76 76 -76 -43 -42z m1715 155 c-3 -21 -13 -99 -23 -173 -10 -74 -19 -137 -20 -139 -2 -1 -20 11 -41 28 -21 16 -55 37 -76 46 -37 15 -38 18 -33 53 3 20 8 58 12 85 6 47 6 47 45 47 35 0 40 4 53 34 15 36 39 55 70 56 16 0 18 -5 13 -37z m89 10 c-2 -10 -15 -94 -27 -188 -12 -93 -25 -174 -30 -179 -4 -5 -14 -6 -21 -3 -12 4 -10 37 13 193 15 104 27 190 28 192 1 1 10 2 22 2 15 0 19 -5 15 -17z m-486 -58 c0 -81 -86 -146 -165 -124 -34 10 -35 11 -21 37 30 56 109 111 164 112 17 0 22 -6 22 -25z m133 10 c39 -5 47 -10 43 -23 -3 -9 -8 -47 -12 -84 l-6 -68 -37 -6 c-20 -3 -48 -9 -62 -14 -23 -7 -30 -4 -48 21 l-22 30 20 28 c12 16 26 52 32 80 8 41 14 51 27 47 10 -2 39 -7 65 -11z m-440 -63 c56 -56 65 -74 49 -99 -5 -9 -34 14 -92 72 l-85 85 36 0 c29 0 44 -9 92 -58z m18 -436 c-33 -34 -34 -56 -3 -56 9 0 74 59 145 131 l127 130 41 -35 c23 -19 54 -38 70 -41 l29 -7 0 -87 0 -87 -153 -151 c-120 -119 -165 -158 -210 -179 -150 -68 -310 -53 -437 41 l-34 25 85 0 c97 0 150 19 191 68 56 67 61 151 14 223 -39 59 -88 79 -191 79 l-85 0 0 133 c0 136 -6 164 -34 154 -14 -5 -16 -27 -16 -149 l0 -144 -58 -57 -58 -58 -37 16 c-20 8 -57 15 -82 15 l-45 0 0 198 0 198 93 -1 c79 0 100 4 150 27 32 15 70 37 85 48 l26 21 210 -210 210 -210 -33 -35z m-935 370 c18 -14 18 -16 -21 -55 -44 -46 -43 -46 -69 -26 -19 15 -19 16 19 55 44 45 44 45 71 26z m1134 -49 c38 10 42 9 60 -17 l19 -27 -52 -51 -53 -52 -52 53 c-44 45 -52 58 -47 79 6 24 8 24 46 14 27 -7 51 -7 79 1z m-1034 -49 l44 -42 0 -86 0 -86 -90 90 -90 90 37 38 c20 21 41 38 46 38 5 0 29 -19 53 -42z m1339 -12 c41 -18 43 -25 12 -54 -52 -49 -136 -46 -184 6 l-25 27 39 17 c47 21 112 23 158 4z m130 -106 l50 -50 -97 -97 c-96 -96 -97 -97 -118 -78 -17 16 -20 30 -20 105 l0 87 45 18 c25 9 53 28 63 41 9 13 19 24 22 24 3 0 28 -23 55 -50z m164 -117 c32 19 78 22 101 7 12 -8 -12 -37 -122 -147 l-138 -138 -60 60 -60 60 97 97 97 98 28 -27 c28 -27 29 -27 57 -10z m-1079 -163 l0 -140 -124 0 -124 0 5 44 c3 24 0 60 -7 81 l-12 37 58 59 58 59 73 0 73 0 0 -140z m1118 -37 c-120 -120 -139 -135 -153 -123 -14 12 -1 29 122 152 122 123 139 136 153 123 13 -14 0 -30 -122 -152z m-1019 122 c25 -29 31 -44 31 -83 0 -51 -25 -104 -59 -122 -21 -11 -21 -9 -21 115 0 69 4 125 9 125 5 0 23 -16 40 -35z m-454 -51 c19 -9 42 -28 51 -42 17 -25 24 -105 11 -118 -20 -21 -115 43 -141 95 -26 51 -28 69 -9 74 35 9 55 7 88 -9z" fill="#e0e0e6"/>
<path d="M564 1797 c-9 -25 4 -37 39 -37 41 -1 106 -30 136 -64 29 -31 61 -35 61 -7 0 57 -217 156 -236 108z" fill="#e0e0e6"/>
<path d="M806 1621 c-12 -19 5 -61 26 -61 16 0 19 6 16 32 -3 33 -29 50 -42 29z" fill="#e0e0e6"/>
<path d="M535 970 c-13 -21 9 -30 76 -30 62 0 69 2 69 20 0 18 -7 20 -69 20 -39 0 -73 -4 -76 -10z" fill="#e0e0e6"/>
</g>
</svg>