<svg xmlns="http://www.w3.org/2000/svg" version="1.0" width="160.000000pt" height="160.000000pt" viewBox="0 0 160.000000 160.000000" preserveAspectRatio="xMidYMid meet">

<g transform="translate(0.000000,160.000000) scale(0.100000,-0.100000)" fill="#373535" stroke="none">
<path d="M923 1494 c-21 -21 -25 -32 -20 -65 6 -49 29 -84 68 -108 28 -17 30 -23 33 -87 4 -83 29 -146 92 -226 24 -31 44 -59 44 -62 0 -3 -40 -6 -88 -6 -190 0 -276 -54 -390 -242 -60 -99 -100 -138 -143 -138 -45 0 -82 -42 -77 -86 l4 -34 -57 0 c-75 0 -104 -22 -104 -79 0 -41 0 -41 -37 -41 -24 0 -46 -8 -64 -23 -59 -51 -18 -137 66 -137 39 0 39 0 33 -34 -4 -28 -1 -39 22 -62 27 -27 28 -27 133 -22 122 6 197 29 270 80 90 64 160 203 193 383 10 53 16 65 28 59 9 -3 24 -9 34 -11 14 -4 17 -17 17 -68 0 -55 -2 -63 -21 -68 -54 -14 14 -44 116 -51 34 -2 23 28 -15 40 -34 11 -35 13 -38 73 l-3 61 51 0 50 0 0 -39 c0 -31 -4 -40 -21 -44 -54 -14 14 -44 116 -51 34 -2 23 28 -15 40 -32 10 -35 15 -38 53 -3 37 -1 41 21 41 46 0 128 31 164 63 69 61 89 146 56 243 -13 38 -40 73 -118 154 -131 135 -131 135 -89 172 19 17 34 36 34 44 0 7 12 21 26 31 l26 16 -26 14 c-14 8 -26 19 -26 26 0 23 -56 68 -93 74 -23 3 -47 0 -67 -11 l-32 -16 7 28 c19 76 18 90 -9 116 -34 34 -79 34 -113 0z m88 -30 c10 -12 10 -22 1 -48 -7 -18 -12 -40 -12 -49 0 -24 -28 -10 -45 24 -8 15 -15 36 -15 47 0 39 46 56 71 26z m164 -149 c16 -15 25 -36 25 -55 0 -36 -38 -80 -69 -80 -11 0 -22 -4 -25 -9 -11 -18 39 -86 125 -171 48 -47 99 -104 114 -126 60 -95 36 -214 -55 -264 -40 -22 -59 -25 -170 -28 -98 -3 -133 0 -163 13 -28 11 -37 20 -33 33 2 9 12 46 21 81 19 78 50 137 87 164 34 25 128 36 128 15 0 -19 -29 -45 -55 -50 -11 -2 -20 -10 -20 -18 0 -26 66 -16 92 15 36 41 30 83 -22 157 -96 136 -114 178 -115 261 0 48 35 87 80 87 19 0 40 -9 55 -25z m-205 -445 c-39 -55 -60 -117 -95 -286 -49 -240 -75 -311 -142 -385 -48 -53 -104 -85 -183 -103 -85 -20 -203 -21 -220 -1 -17 21 -9 48 20 62 49 24 30 38 -57 41 -70 2 -84 6 -93 22 -8 14 -8 26 0 40 9 16 23 20 92 22 85 3 113 19 65 37 -14 6 -28 19 -32 31 -12 39 10 49 113 52 99 3 130 18 78 38 -59 22 -44 67 27 85 61 15 77 31 144 140 31 49 67 104 80 122 34 44 114 96 127 83 15 -15 36 -12 36 4 0 8 8 17 18 19 40 11 43 7 22 -23z" fill="#373535"/>
<path d="M1124 1269 c-10 -17 13 -36 27 -22 12 12 4 33 -11 33 -5 0 -12 -5 -16 -11z" fill="#373535"/>
<path d="M860 806 c0 -8 4 -17 9 -20 11 -7 33 18 24 27 -12 12 -33 7 -33 -7z" fill="#373535"/>
<path d="M846 743 c-12 -12 -6 -33 9 -33 8 0 15 6 15 14 0 17 -14 28 -24 19z" fill="#373535"/>
<path d="M824 659 c-3 -6 -1 -16 5 -22 9 -9 14 -8 21 3 9 15 4 30 -10 30 -5 0 -12 -5 -16 -11z" fill="#373535"/>
<path d="M807 575 c-8 -18 11 -31 25 -17 11 11 3 32 -12 32 -4 0 -10 -7 -13 -15z" fill="#373535"/>
<path d="M790 496 c0 -8 4 -17 9 -20 11 -7 33 18 24 27 -12 12 -33 7 -33 -7z" fill="#373535"/>
<path d="M504 489 c-10 -17 13 -36 27 -22 12 12 4 33 -11 33 -5 0 -12 -5 -16 -11z" fill="#373535"/>
<path d="M770 415 c0 -10 7 -15 18 -13 21 4 19 22 -2 26 -10 2 -16 -3 -16 -13z" fill="#373535"/>
<path d="M344 369 c-10 -17 13 -36 27 -22 12 12 4 33 -11 33 -5 0 -12 -5 -16 -11z" fill="#373535"/>
<path d="M747 345 c-8 -18 11 -31 25 -17 11 11 3 32 -12 32 -4 0 -10 -7 -13 -15z" fill="#373535"/>
<path d="M716 283 c-12 -12 -6 -33 9 -33 8 0 15 6 15 14 0 17 -14 28 -24 19z" fill="#373535"/>
<path d="M224 249 c-10 -17 13 -36 27 -22 12 12 4 33 -11 33 -5 0 -12 -5 -16 -11z" fill="#373535"/>
<path d="M661 216 c-9 -10 -9 -16 -1 -21 17 -10 37 12 24 25 -8 8 -15 6 -23 -4z" fill="#373535"/>
<path d="M590 165 c0 -8 7 -15 15 -15 8 0 15 7 15 15 0 8 -7 15 -15 15 -8 0 -15 -7 -15 -15z" fill="#373535"/>
<path d="M514 149 c-10 -17 13 -36 27 -22 12 12 4 33 -11 33 -5 0 -12 -5 -16 -11z" fill="#373535"/>
<path d="M354 139 c-10 -17 13 -36 27 -22 12 12 4 33 -11 33 -5 0 -12 -5 -16 -11z" fill="#373535"/>
<path d="M434 139 c-10 -17 13 -36 27 -22 12 12 4 33 -11 33 -5 0 -12 -5 -16 -11z" fill="#373535"/>
</g>
</svg>