<svg xmlns="http://www.w3.org/2000/svg" version="1.0" width="160.000000pt" height="160.000000pt" viewBox="0 0 160.000000 160.000000" preserveAspectRatio="xMidYMid meet">

<g transform="translate(0.000000,160.000000) scale(0.100000,-0.100000)" fill="#e0e0e6" stroke="none">
<path d="M899 1412 c-39 -20 -62 -41 -84 -77 -29 -48 -30 -51 -35 -214 l-5 -165 -32 -7 c-91 -18 -180 -101 -301 -277 -109 -159 -122 -172 -172 -172 -80 0 -119 -82 -65 -135 l24 -25 225 0 225 0 3 -47 c3 -46 5 -48 77 -100 41 -29 77 -53 80 -53 19 0 176 108 176 120 0 12 -26 15 -147 18 l-148 3 0 28 0 29 143 4 c182 5 234 23 323 112 82 83 108 148 108 271 -1 104 -20 165 -84 264 -22 34 -40 63 -40 65 0 2 17 7 37 11 50 9 111 39 157 76 31 27 36 36 31 58 -16 65 -110 143 -187 156 -23 4 -51 16 -62 27 -64 62 -163 74 -247 30z m176 -31 c39 -19 39 -19 11 -20 -85 -3 -170 -61 -210 -144 -17 -37 -17 -40 0 -58 29 -32 118 -70 180 -76 l59 -6 -40 -18 c-54 -25 -102 -24 -155 4 -132 66 -132 248 0 315 54 27 102 28 155 3z m54 -75 c70 -36 64 -146 -9 -176 -57 -24 -199 18 -208 60 -1 9 13 34 32 56 58 68 126 90 185 60z m130 -10 c28 -15 101 -90 101 -104 -1 -20 -153 -102 -166 -89 -2 1 3 21 11 42 17 47 19 104 5 139 -11 31 4 35 49 12z m-354 -274 c41 -22 150 -22 191 1 l32 16 40 -62 c23 -34 45 -74 51 -89 9 -25 8 -28 -33 -43 -23 -9 -73 -19 -111 -23 l-68 -7 -14 -70 c-19 -92 -82 -212 -147 -278 -86 -87 -88 -88 -367 -85 -218 3 -243 5 -253 21 -18 28 5 51 57 57 60 7 79 26 184 177 46 66 100 140 120 162 49 58 118 103 178 116 l50 11 3 83 3 83 27 -27 c14 -15 40 -34 57 -43z m350 -257 c14 -109 -20 -208 -96 -284 -67 -67 -135 -94 -249 -99 l-95 -5 62 66 c69 74 135 195 153 280 l11 55 55 7 c31 4 72 13 92 20 57 21 60 19 67 -40z m-339 -532 c-2 -5 -20 -16 -40 -27 -34 -18 -35 -18 -70 4 -20 12 -36 24 -36 26 0 2 34 4 76 4 41 0 73 -3 70 -7z" fill="#e0e0e6"/>
<path d="M1038 1225 l-17 -45 39 0 39 0 -17 45 c-9 25 -19 45 -22 45 -3 0 -13 -20 -22 -45z" fill="#e0e0e6"/>
<path d="M920 745 c0 -8 7 -15 15 -15 8 0 15 7 15 15 0 8 -7 15 -15 15 -8 0 -15 -7 -15 -15z" fill="#e0e0e6"/>
<path d="M894 679 c-10 -17 13 -36 27 -22 12 12 4 33 -11 33 -5 0 -12 -5 -16 -11z" fill="#e0e0e6"/>
<path d="M860 610 c-12 -7 -12 -12 -2 -22 9 -9 15 -9 24 0 16 16 -2 34 -22 22z" fill="#e0e0e6"/>
<path d="M812 534 c4 -21 22 -23 26 -1 2 10 -3 17 -13 17 -10 0 -15 -6 -13 -16z" fill="#e0e0e6"/>
<path d="M752 478 c7 -19 38 -22 38 -4 0 10 -9 16 -21 16 -12 0 -19 -5 -17 -12z" fill="#e0e0e6"/>
<path d="M684 449 c-10 -17 13 -36 27 -22 12 12 4 33 -11 33 -5 0 -12 -5 -16 -11z" fill="#e0e0e6"/>
</g>
</svg>