<svg xmlns="http://www.w3.org/2000/svg" version="1.0" width="160.000000pt" height="160.000000pt" viewBox="0 0 160.000000 160.000000" preserveAspectRatio="xMidYMid meet">

<g transform="translate(0.000000,160.000000) scale(0.100000,-0.100000)" fill="#a184ab" stroke="none">
<path d="M370 1331 c-71 -23 -132 -75 -165 -141 -43 -85 -25 -244 42 -374 30 -58 65 -99 194 -226 86 -85 171 -174 187 -198 36 -50 62 -123 71 -196 4 -36 10 -51 21 -51 39 0 12 151 -43 245 -19 33 -100 122 -203 225 -146 144 -176 180 -202 235 -84 182 -65 342 51 414 69 43 140 47 211 12 57 -28 95 -71 78 -88 -6 -6 -25 -1 -51 13 -54 28 -104 21 -146 -21 -25 -26 -30 -38 -30 -80 0 -40 5 -54 29 -79 35 -37 84 -48 138 -32 30 10 43 10 54 0 23 -19 16 -44 -28 -94 -84 -95 -58 -135 183 -278 287 -170 355 -245 377 -417 5 -39 11 -55 22 -55 12 0 15 13 13 63 -3 109 -68 220 -185 312 l-46 37 64 6 c83 8 151 38 202 90 54 55 80 116 91 216 7 69 13 87 36 111 15 16 44 33 64 37 33 8 36 12 35 41 -2 41 -26 78 -67 102 -30 19 -53 20 -359 20 l-327 0 -15 28 c-19 36 -72 85 -116 107 -38 20 -142 29 -180 16z m185 -176 c50 -49 15 -135 -55 -135 -41 0 -80 39 -80 80 0 41 39 80 80 80 19 0 40 -9 55 -25z m804 -41 c33 -27 44 -71 15 -60 -17 6 -62 -30 -91 -73 -9 -14 -19 -60 -24 -104 -14 -144 -75 -227 -192 -262 -94 -28 -200 -13 -297 43 -88 50 -188 121 -194 137 -10 27 -8 32 39 85 48 54 57 90 31 125 -8 11 -12 25 -9 31 2 7 0 15 -6 19 -15 9 -14 58 1 73 9 9 101 12 354 12 l342 0 31 -26z" fill="#a184ab"/>
<path d="M470 1125 c-26 -32 13 -81 48 -59 34 22 22 74 -18 74 -10 0 -23 -7 -30 -15z" fill="#a184ab"/>
<path d="M685 1050 c-8 -14 3 -30 21 -30 8 0 14 9 14 20 0 21 -24 28 -35 10z" fill="#a184ab"/>
<path d="M770 1040 c0 -11 7 -20 15 -20 8 0 15 9 15 20 0 11 -7 20 -15 20 -8 0 -15 -9 -15 -20z" fill="#a184ab"/>
<path d="M850 1040 c0 -15 5 -20 18 -18 9 2 17 10 17 18 0 8 -8 16 -17 18 -13 2 -18 -3 -18 -18z" fill="#a184ab"/>
<path d="M934 1049 c-10 -17 13 -36 27 -22 12 12 4 33 -11 33 -5 0 -12 -5 -16 -11z" fill="#a184ab"/>
<path d="M1014 1049 c-10 -17 13 -36 27 -22 12 12 4 33 -11 33 -5 0 -12 -5 -16 -11z" fill="#a184ab"/>
<path d="M1095 1050 c-8 -14 3 -30 21 -30 8 0 14 9 14 20 0 21 -24 28 -35 10z" fill="#a184ab"/>
<path d="M1180 1040 c0 -11 7 -20 15 -20 8 0 15 9 15 20 0 11 -7 20 -15 20 -8 0 -15 -9 -15 -20z" fill="#a184ab"/>
<path d="M1260 1040 c0 -15 5 -20 18 -18 9 2 17 10 17 18 0 8 -8 16 -17 18 -13 2 -18 -3 -18 -18z" fill="#a184ab"/>
</g>
</svg>