<svg xmlns="http://www.w3.org/2000/svg" version="1.0" width="160.000000pt" height="160.000000pt" viewBox="0 0 160.000000 160.000000" preserveAspectRatio="xMidYMid meet">

<g transform="translate(0.000000,160.000000) scale(0.100000,-0.100000)" fill="#c787b4" stroke="none">
<path d="M914 1406 c-18 -8 -51 -31 -73 -52 -108 -97 -138 -249 -65 -325 54 -57 142 -46 224 28 149 134 135 364 -22 363 -18 -1 -47 -7 -64 -14z m113 -41 c83 -58 25 -243 -97 -309 -92 -50 -152 -17 -152 84 2 143 161 286 249 225z" fill="#c787b4"/>
<path d="M987 1344 c-9 -10 2 -24 19 -24 8 0 14 7 14 15 0 15 -21 21 -33 9z" fill="#c787b4"/>
<path d="M996 1273 c-12 -12 -6 -33 9 -33 8 0 15 6 15 14 0 17 -14 28 -24 19z" fill="#c787b4"/>
<path d="M964 1189 c-10 -17 13 -36 27 -22 12 12 4 33 -11 33 -5 0 -12 -5 -16 -11z" fill="#c787b4"/>
<path d="M914 1129 c-10 -17 13 -36 27 -22 12 12 4 33 -11 33 -5 0 -12 -5 -16 -11z" fill="#c787b4"/>
<path d="M844 1089 c-10 -17 13 -36 27 -22 12 12 4 33 -11 33 -5 0 -12 -5 -16 -11z" fill="#c787b4"/>
<path d="M495 1326 c-68 -30 -117 -123 -117 -221 0 -142 106 -213 198 -133 107 94 114 303 11 351 -42 20 -52 20 -92 3z m76 -36 c54 -29 66 -143 24 -227 -30 -60 -64 -85 -108 -81 -107 10 -84 262 28 308 27 12 33 12 56 0z" fill="#c787b4"/>
<path d="M544 1249 c-10 -17 13 -36 27 -22 12 12 4 33 -11 33 -5 0 -12 -5 -16 -11z" fill="#c787b4"/>
<path d="M554 1169 c-10 -17 13 -36 27 -22 12 12 4 33 -11 33 -5 0 -12 -5 -16 -11z" fill="#c787b4"/>
<path d="M530 1085 c0 -8 7 -15 15 -15 8 0 15 7 15 15 0 8 -7 15 -15 15 -8 0 -15 -7 -15 -15z" fill="#c787b4"/>
<path d="M480 1040 c-12 -7 -12 -12 -2 -22 9 -9 15 -9 24 0 16 16 -2 34 -22 22z" fill="#c787b4"/>
<path d="M1230 1076 c-129 -34 -237 -167 -215 -265 9 -41 67 -91 108 -92 102 -5 182 26 247 97 95 103 93 211 -3 255 -48 21 -74 23 -137 5z m136 -51 c104 -68 -48 -265 -206 -267 -61 0 -96 20 -105 61 -28 131 198 280 311 206z" fill="#c787b4"/>
<path d="M1344 989 c-10 -17 13 -36 27 -22 12 12 4 33 -11 33 -5 0 -12 -5 -16 -11z" fill="#c787b4"/>
<path d="M1316 923 c-12 -12 -6 -33 9 -33 8 0 15 6 15 14 0 17 -14 28 -24 19z" fill="#c787b4"/>
<path d="M1254 859 c-10 -17 13 -36 27 -22 12 12 4 33 -11 33 -5 0 -12 -5 -16 -11z" fill="#c787b4"/>
<path d="M1184 819 c-3 -6 -2 -15 2 -19 12 -12 38 5 30 19 -9 14 -23 14 -32 0z" fill="#c787b4"/>
<path d="M1104 809 c-10 -17 13 -36 27 -22 12 12 4 33 -11 33 -5 0 -12 -5 -16 -11z" fill="#c787b4"/>
<path d="M535 859 c-191 -18 -337 -113 -352 -228 -12 -86 46 -165 148 -202 68 -25 93 -49 114 -109 35 -98 106 -160 185 -160 122 0 228 158 249 369 13 126 -6 197 -71 262 -63 62 -138 81 -273 68z m205 -68 c26 -16 56 -46 74 -74 26 -42 29 -56 28 -122 -1 -95 -17 -174 -52 -250 -35 -78 -72 -121 -116 -135 -80 -27 -149 15 -186 112 -29 76 -68 117 -137 142 -67 24 -106 57 -121 102 -41 123 92 231 310 253 101 10 146 4 200 -28z" fill="#c787b4"/>
<path d="M744 709 c-10 -17 13 -36 27 -22 12 12 4 33 -11 33 -5 0 -12 -5 -16 -11z" fill="#c787b4"/>
<path d="M762 624 c4 -21 22 -23 26 -1 2 10 -3 17 -13 17 -10 0 -15 -6 -13 -16z" fill="#c787b4"/>
<path d="M764 549 c-10 -17 13 -36 27 -22 12 12 4 33 -11 33 -5 0 -12 -5 -16 -11z" fill="#c787b4"/>
<path d="M762 464 c4 -21 22 -23 26 -1 2 10 -3 17 -13 17 -10 0 -15 -6 -13 -16z" fill="#c787b4"/>
<path d="M740 385 c0 -8 7 -15 15 -15 8 0 15 7 15 15 0 8 -7 15 -15 15 -8 0 -15 -7 -15 -15z" fill="#c787b4"/>
<path d="M706 333 c-12 -12 -6 -33 9 -33 8 0 15 6 15 14 0 17 -14 28 -24 19z" fill="#c787b4"/>
<path d="M564 289 c-10 -17 13 -36 27 -22 12 12 4 33 -11 33 -5 0 -12 -5 -16 -11z" fill="#c787b4"/>
<path d="M640 265 c0 -8 7 -15 15 -15 8 0 15 7 15 15 0 8 -7 15 -15 15 -8 0 -15 -7 -15 -15z" fill="#c787b4"/>
<path d="M1075 616 c-69 -32 -115 -86 -115 -135 0 -108 148 -160 282 -98 93 42 134 116 102 182 -35 74 -167 99 -269 51z m195 -31 c108 -56 6 -187 -147 -188 -99 0 -151 61 -108 127 41 62 186 97 255 61z" fill="#c787b4"/>
<path d="M1242 494 c4 -21 22 -23 26 -1 2 10 -3 17 -13 17 -10 0 -15 -6 -13 -16z" fill="#c787b4"/>
<path d="M1024 489 c-10 -17 13 -36 27 -22 12 12 4 33 -11 33 -5 0 -12 -5 -16 -11z" fill="#c787b4"/>
<path d="M1174 459 c-10 -17 13 -36 27 -22 12 12 4 33 -11 33 -5 0 -12 -5 -16 -11z" fill="#c787b4"/>
<path d="M1097 454 c-13 -13 -7 -24 14 -24 11 0 19 5 17 12 -5 14 -22 21 -31 12z" fill="#c787b4"/>
</g>
</svg>