<svg xmlns="http://www.w3.org/2000/svg" version="1.0" width="160.000000pt" height="160.000000pt" viewBox="0 0 160.000000 160.000000" preserveAspectRatio="xMidYMid meet">

<g transform="translate(0.000000,160.000000) scale(0.100000,-0.100000)" fill="#b07fa1" stroke="none">
<path d="M771 1444 c-193 -52 -332 -192 -376 -376 -8 -35 -15 -86 -15 -114 0 -51 -1 -52 -40 -68 -54 -21 -57 -21 -90 16 -68 75 -61 -54 8 -153 61 -87 159 -139 307 -164 l40 -7 -60 -55 c-48 -43 -143 -106 -257 -170 -4 -2 -5 10 -1 28 5 26 3 31 -12 27 -12 -2 -27 -24 -41 -60 -12 -31 -34 -73 -49 -93 -22 -28 -25 -39 -16 -48 10 -9 18 -5 41 19 15 18 32 38 36 46 5 8 65 47 134 88 72 42 159 103 205 145 70 63 86 73 130 79 72 10 168 59 211 109 48 55 89 142 104 221 11 57 15 65 38 71 15 4 34 13 42 20 11 10 70 18 205 25 105 7 194 15 199 20 24 24 -12 30 -178 30 l-173 0 -7 38 c-3 24 -17 49 -36 67 -26 25 -40 30 -80 30 -42 0 -54 -5 -81 -32 -30 -30 -33 -37 -40 -131 -9 -113 -28 -172 -57 -172 -11 0 -48 13 -84 29 -61 28 -66 33 -71 68 -16 94 1 200 44 286 12 23 51 72 86 109 36 37 62 71 58 77 -9 15 -59 13 -124 -5z m4 -76 c-70 -82 -115 -209 -115 -321 0 -120 77 -314 111 -280 7 7 3 25 -12 56 -13 26 -20 49 -17 52 3 3 25 -4 49 -15 60 -27 86 -25 119 8 32 33 50 102 50 198 0 56 4 68 25 89 32 33 78 33 110 0 49 -48 22 -122 -50 -134 l-38 -6 -17 -85 c-20 -100 -46 -156 -101 -215 -66 -72 -115 -89 -244 -90 -170 0 -277 44 -352 143 -39 52 -42 71 -10 65 13 -3 41 3 62 11 21 9 39 15 40 14 1 -2 7 -17 14 -33 19 -50 58 -92 71 -78 9 8 6 22 -15 57 -20 34 -28 64 -32 118 -15 206 110 397 308 468 78 28 85 25 44 -22z" fill="#b07fa1"/>
<path d="M584 1249 c-10 -17 13 -36 27 -22 12 12 4 33 -11 33 -5 0 -12 -5 -16 -11z" fill="#b07fa1"/>
<path d="M524 1189 c-10 -17 13 -36 27 -22 12 12 4 33 -11 33 -5 0 -12 -5 -16 -11z" fill="#b07fa1"/>
<path d="M624 1189 c-10 -17 13 -36 27 -22 12 12 4 33 -11 33 -5 0 -12 -5 -16 -11z" fill="#b07fa1"/>
<path d="M464 1129 c-10 -17 13 -36 27 -22 12 12 4 33 -11 33 -5 0 -12 -5 -16 -11z" fill="#b07fa1"/>
<path d="M1044 1129 c-10 -17 13 -36 27 -22 12 12 4 33 -11 33 -5 0 -12 -5 -16 -11z" fill="#b07fa1"/>
<path d="M504 709 c-10 -17 13 -36 27 -22 12 12 4 33 -11 33 -5 0 -12 -5 -16 -11z" fill="#b07fa1"/>
<path d="M744 709 c-10 -17 13 -36 27 -22 12 12 4 33 -11 33 -5 0 -12 -5 -16 -11z" fill="#b07fa1"/>
<path d="M584 689 c-10 -17 13 -36 27 -22 12 12 4 33 -11 33 -5 0 -12 -5 -16 -11z" fill="#b07fa1"/>
<path d="M664 689 c-10 -17 13 -36 27 -22 12 12 4 33 -11 33 -5 0 -12 -5 -16 -11z" fill="#b07fa1"/>
</g>
</svg>