<svg xmlns="http://www.w3.org/2000/svg" version="1.0" width="160.000000pt" height="160.000000pt" viewBox="0 0 160.000000 160.000000" preserveAspectRatio="xMidYMid meet">

<g transform="translate(0.000000,160.000000) scale(0.100000,-0.100000)" fill="#e0e0e6" stroke="none">
<path d="M494 1446 c-33 -15 -77 -66 -89 -103 -7 -25 -15 -27 -115 -40 -98 -12 -88 -31 35 -66 62 -18 110 -38 125 -52 29 -28 71 -45 107 -45 24 0 25 -2 18 -37 -11 -63 -51 -134 -120 -218 -167 -203 -202 -275 -193 -390 13 -155 129 -275 333 -342 69 -23 97 -27 205 -27 108 0 136 4 205 27 182 60 327 186 406 352 38 80 38 123 -1 160 -21 20 -41 29 -63 29 l-32 0 0 103 0 102 -45 46 c-126 130 -316 169 -480 101 -13 -5 -15 11 -15 111 0 102 -3 125 -23 168 -13 27 -33 61 -45 74 -50 54 -147 75 -213 47z m141 -46 c63 -30 98 -100 103 -207 7 -122 -8 -166 -77 -238 -32 -33 -68 -79 -80 -103 -119 -233 -10 -492 214 -510 105 -8 178 47 178 134 l0 41 79 11 c86 13 178 51 205 86 10 13 35 29 56 35 51 17 87 -4 87 -52 0 -51 -74 -172 -154 -252 -194 -193 -480 -238 -733 -113 -148 72 -223 185 -210 314 8 79 35 128 144 264 120 150 136 177 158 255 9 33 20 68 26 78 15 27 4 34 -61 39 -52 4 -66 9 -93 36 -27 28 -32 40 -32 81 0 100 92 149 190 101z m489 -399 c67 -33 137 -96 148 -133 3 -13 6 -43 7 -68 3 -144 -79 -217 -263 -236 -51 -5 -68 -3 -103 16 -46 23 -88 24 -88 0 0 -8 14 -17 34 -21 75 -16 101 -94 48 -147 -25 -24 -35 -27 -96 -27 -89 0 -151 36 -198 114 -114 190 21 472 254 531 21 5 73 8 117 6 62 -3 91 -11 140 -35z" fill="#e0e0e6"/>
<path d="M504 1326 c-10 -26 4 -48 28 -44 17 2 23 10 23 28 0 18 -6 26 -23 28 -13 2 -25 -3 -28 -12z" fill="#e0e0e6"/>
<path d="M934 989 c-3 -6 -1 -16 5 -22 9 -9 14 -8 21 3 9 15 4 30 -10 30 -5 0 -12 -5 -16 -11z" fill="#e0e0e6"/>
<path d="M854 979 c-10 -17 13 -36 27 -22 12 12 4 33 -11 33 -5 0 -12 -5 -16 -11z" fill="#e0e0e6"/>
<path d="M1010 976 c0 -8 4 -17 9 -20 11 -7 33 18 24 27 -12 12 -33 7 -33 -7z" fill="#e0e0e6"/>
<path d="M1091 956 c-12 -14 -5 -26 16 -26 15 0 18 26 4 34 -5 3 -14 0 -20 -8z" fill="#e0e0e6"/>
<path d="M1150 906 c0 -10 9 -16 21 -16 24 0 21 23 -4 28 -10 2 -17 -3 -17 -12z" fill="#e0e0e6"/>
<path d="M1216 863 c-12 -12 -6 -33 9 -33 8 0 15 6 15 14 0 17 -14 28 -24 19z" fill="#e0e0e6"/>
</g>
</svg>