<svg xmlns="http://www.w3.org/2000/svg" version="1.0" width="225.000000pt" height="225.000000pt" viewBox="0 0 225.000000 225.000000" preserveAspectRatio="xMidYMid meet">

<g transform="translate(0.000000,225.000000) scale(0.100000,-0.100000)" fill="#e0e0e6" stroke="none">
<path d="M1153 1900 c-18 -10 -44 -36 -57 -57 -25 -38 -66 -174 -66 -220 0 -12 -3 -23 -7 -22 -5 0 -34 34 -65 74 -39 50 -75 84 -110 105 -86 49 -108 43 -233 -58 -71 -58 -85 -91 -66 -161 13 -50 76 -154 116 -191 14 -13 25 -27 25 -30 0 -4 -44 -7 -97 -7 -123 0 -177 -15 -221 -59 -33 -33 -34 -37 -28 -87 8 -60 8 -66 0 -128 -7 -60 11 -90 74 -121 42 -21 60 -23 184 -22 l137 1 -43 -51 c-56 -67 -103 -138 -122 -183 -33 -77 9 -172 84 -193 25 -6 43 -20 54 -40 16 -28 21 -30 73 -30 94 0 167 54 226 165 13 25 27 45 30 45 4 0 14 -30 23 -66 29 -114 84 -202 141 -224 38 -14 88 -12 111 5 10 8 35 15 54 15 50 0 94 31 120 85 26 54 23 112 -10 234 -11 39 -20 73 -20 76 0 3 19 -8 42 -25 44 -32 152 -70 199 -70 70 0 149 54 149 103 0 16 11 42 25 59 31 36 39 68 31 113 -10 54 -42 81 -165 144 -100 51 -111 60 -90 66 90 27 195 101 225 157 23 44 18 112 -10 145 -13 16 -29 47 -35 70 -21 78 -102 117 -192 93 -46 -12 -141 -61 -172 -88 -25 -22 -27 -14 -13 48 7 31 16 86 20 123 7 58 5 74 -14 112 -28 59 -72 90 -125 88 -22 0 -49 6 -60 13 -28 20 -85 17 -122 -6z m103 -61 c15 -17 26 -19 64 -14 40 6 48 3 70 -20 22 -24 25 -34 22 -93 -3 -93 -26 -173 -72 -257 -35 -63 -52 -125 -35 -125 26 0 89 41 147 94 153 143 318 171 318 56 0 -31 5 -43 24 -55 29 -19 38 -49 25 -84 -25 -65 -92 -105 -255 -152 -199 -57 -202 -71 -19 -106 80 -15 222 -81 273 -126 29 -27 28 -68 -3 -97 -18 -17 -25 -34 -25 -60 0 -52 -27 -74 -89 -73 -64 1 -126 30 -230 107 -105 78 -137 94 -153 78 -10 -10 1 -38 45 -125 58 -113 77 -179 77 -267 0 -68 -24 -95 -80 -92 -33 2 -48 -2 -66 -19 -20 -19 -29 -21 -56 -13 -38 11 -67 51 -99 132 -18 45 -23 84 -27 182 -2 69 -8 129 -12 134 -17 17 -40 -16 -101 -141 -42 -86 -76 -140 -108 -174 -61 -64 -91 -65 -149 -9 -24 24 -50 40 -64 40 -33 0 -48 18 -48 60 0 54 107 210 185 269 85 66 117 98 113 118 -5 28 -39 27 -125 -4 -68 -24 -93 -27 -193 -27 -128 -1 -182 15 -201 57 -9 19 -7 31 5 56 15 28 15 34 0 62 -23 46 -11 77 39 99 60 28 231 28 319 0 75 -23 118 -26 118 -6 0 13 -24 36 -126 122 -61 51 -153 182 -161 228 -6 38 22 76 55 76 10 0 32 16 49 35 49 55 102 45 174 -32 59 -63 87 -105 118 -182 16 -40 37 -81 47 -92 37 -41 42 -26 47 134 5 172 20 237 68 292 35 40 67 45 95 14z" fill="#e0e0e6"/>
<path d="M1044 1294 c-113 -73 -132 -214 -40 -309 73 -76 175 -85 258 -22 59 45 82 89 83 157 0 73 -28 126 -89 168 -42 27 -57 32 -110 32 -50 0 -70 -5 -102 -26z m184 -41 c66 -49 86 -115 57 -188 -46 -121 -215 -130 -276 -15 -42 79 -7 178 76 216 39 18 110 12 143 -13z" fill="#e0e0e6"/>
</g>
</svg>