<svg xmlns="http://www.w3.org/2000/svg" version="1.0" width="225.000000pt" height="225.000000pt" viewBox="0 0 225.000000 225.000000" preserveAspectRatio="xMidYMid meet">

<g transform="translate(0.000000,225.000000) scale(0.100000,-0.100000)" fill="#e0e0e6" stroke="none">
<path d="M940 1925 c-316 -44 -555 -186 -659 -392 -27 -53 -53 -165 -50 -212 2 -20 -3 -46 -9 -58 -18 -33 -14 -59 10 -76 l23 -15 -22 -24 c-26 -27 -53 -88 -53 -118 0 -11 -16 -43 -35 -71 -19 -28 -35 -56 -35 -63 0 -6 13 -23 30 -38 21 -18 30 -35 30 -56 0 -36 23 -62 55 -62 17 0 30 -13 53 -52 64 -113 210 -229 363 -288 490 -189 1117 -67 1334 260 26 39 49 70 51 70 3 0 18 -7 34 -15 26 -13 30 -13 52 4 34 28 32 120 -4 182 -24 41 -27 55 -26 140 0 52 -4 106 -10 121 -9 21 -8 29 4 38 22 19 17 54 -11 80 -16 15 -25 35 -25 54 0 55 -30 158 -63 219 -147 278 -586 435 -1037 372z m420 -20 c376 -61 635 -272 657 -535 l6 -66 -61 -17 c-86 -24 -308 -63 -442 -78 -149 -17 -620 -17 -765 -1 -148 17 -268 38 -397 68 l-108 26 0 41 c0 131 89 290 214 383 112 85 275 151 437 178 115 19 342 19 459 1z m700 -640 c33 -35 19 -55 -56 -79 -32 -11 -63 -25 -67 -33 -5 -7 -26 -13 -50 -13 -35 0 -46 -5 -68 -31 -23 -29 -29 -31 -55 -22 -21 7 -42 6 -77 -4 -46 -14 -49 -13 -78 11 -44 37 -98 35 -143 -5 -34 -29 -38 -30 -72 -19 -27 9 -50 9 -93 1 -73 -14 -114 -6 -175 36 -63 43 -108 44 -143 4 -22 -25 -29 -28 -49 -19 -20 9 -34 6 -84 -20 -71 -38 -91 -39 -136 -11 -29 17 -43 20 -86 14 -50 -7 -52 -7 -84 31 l-32 39 -110 -3 -111 -2 -3 27 c-2 20 -9 29 -25 31 -32 5 -43 23 -29 49 11 23 12 22 30 -11 34 -64 87 -74 158 -30 41 26 42 27 127 15 115 -17 114 -16 135 -56 22 -41 85 -75 140 -75 43 0 86 36 86 71 0 21 1 21 117 14 99 -6 122 -11 148 -30 39 -29 88 -45 139 -45 43 0 86 22 86 43 1 32 21 40 128 51 l110 12 41 -38 c34 -32 47 -38 83 -38 59 0 71 11 77 66 l6 48 55 12 c45 10 58 10 74 -2 22 -15 46 -3 46 22 0 21 14 17 40 -11z m-1705 -5 c33 -7 64 -17 69 -21 11 -10 -53 -49 -81 -49 -11 0 -33 14 -47 31 -27 32 -35 65 -13 56 6 -2 39 -10 72 -17z m1645 10 c0 -5 -2 -10 -4 -10 -3 0 -8 5 -11 10 -3 6 -1 10 4 10 6 0 11 -4 11 -10z m-193 -118 c-22 -21 -80 -8 -120 28 l-32 28 35 6 c19 4 55 10 80 14 l45 8 3 -35 c2 -20 -2 -40 -11 -49z m-979 32 c55 -5 62 -8 62 -28 0 -33 -19 -46 -67 -46 -50 0 -95 20 -117 52 -24 34 -20 40 22 34 20 -3 65 -8 100 -12z m-548 -14 c0 -5 -4 -10 -10 -10 -5 0 -10 5 -10 10 0 6 5 10 10 10 6 0 10 -4 10 -10z m1110 -2 c-1 -59 -103 -69 -194 -20 l-31 17 40 6 c76 12 185 10 185 -3z m646 -35 c-17 -112 -17 -130 -2 -173 26 -78 29 -114 12 -153 -20 -49 -43 -48 -51 1 -18 122 -45 183 -61 135 -3 -10 -8 -25 -11 -33 -9 -28 -31 18 -38 81 l-7 59 -38 6 -39 6 27 34 c24 30 32 34 70 32 28 -1 46 4 55 15 12 15 35 24 70 26 16 1 18 -4 13 -36z m-1642 -7 c113 7 101 12 161 -59 12 -14 25 -16 68 -11 43 5 60 2 92 -15 51 -27 59 -27 129 10 45 24 66 29 92 24 29 -5 37 -2 61 25 34 38 55 35 135 -16 51 -34 56 -35 123 -30 39 3 79 6 90 7 11 0 39 -2 63 -6 38 -7 45 -5 67 19 33 36 93 36 131 1 15 -14 33 -24 40 -21 49 19 92 26 110 19 19 -7 16 -13 -44 -67 l-66 -59 -35 40 c-57 64 -95 65 -121 3 -12 -30 -33 -39 -45 -20 -10 16 -52 12 -71 -7 -14 -14 -16 -29 -10 -94 7 -84 2 -95 -39 -85 -25 6 -45 49 -45 98 0 42 -25 95 -49 103 -23 7 -64 -12 -110 -51 -18 -15 -33 -25 -35 -23 -2 2 -9 24 -17 49 -12 40 -18 45 -46 48 -23 2 -37 -3 -50 -19 -10 -12 -27 -33 -38 -46 l-21 -25 -27 41 c-46 69 -113 66 -144 -7 -13 -32 -14 -49 -4 -123 16 -123 14 -163 -8 -190 l-20 -24 -23 23 c-22 22 -23 29 -20 146 3 146 4 145 -106 160 l-77 11 -1 44 c-1 56 -23 74 -82 68 -49 -5 -74 -24 -109 -84 -14 -24 -31 -43 -38 -43 -28 0 -26 83 3 137 7 12 12 34 12 50 1 24 2 26 11 10 9 -16 21 -17 113 -11z m-158 -61 c-20 -57 -20 -119 -1 -135 21 -17 51 -3 65 31 23 55 64 89 107 89 48 0 63 -14 63 -60 0 -48 15 -60 71 -60 60 0 107 -17 114 -42 11 -33 -5 -139 -22 -145 -17 -7 -180 35 -267 67 -66 25 -137 85 -156 130 -17 41 -9 138 15 174 26 40 32 14 11 -49z m1834 -1 c0 -70 -10 -120 -21 -102 -10 16 -11 68 -3 132 9 60 24 41 24 -30z m-208 -38 c4 -6 8 -25 8 -43 0 -74 38 -114 70 -75 l18 21 6 -22 c13 -50 7 -66 -33 -86 -21 -11 -83 -27 -137 -36 -55 -9 -148 -25 -208 -35 -200 -37 -330 -43 -581 -30 -126 7 -232 14 -234 16 -7 7 -20 97 -20 147 -2 113 58 141 127 60 l40 -47 20 24 c12 14 32 38 45 54 33 40 61 30 76 -28 6 -24 17 -46 25 -49 9 -4 35 11 63 33 77 64 102 52 119 -60 3 -25 10 -55 15 -68 10 -26 53 -45 80 -37 17 6 19 17 19 101 0 94 0 94 25 94 14 0 35 -6 46 -12 18 -11 23 -10 37 10 52 70 48 68 75 53 14 -7 31 -24 38 -37 24 -45 55 -42 107 9 26 25 58 50 71 55 28 10 73 4 83 -12z m-1652 -108 c44 -90 146 -139 402 -192 19 -4 28 -14 33 -36 9 -43 42 -80 71 -80 19 0 29 8 40 35 7 19 14 44 14 55 0 19 4 20 73 13 39 -5 191 -8 337 -8 218 0 281 3 355 18 50 10 145 27 211 37 108 17 157 29 217 55 13 6 17 2 17 -18 0 -34 23 -52 49 -37 31 16 41 43 41 105 0 62 11 65 35 8 19 -45 19 -113 1 -139 -12 -16 -18 -17 -34 -7 -11 6 -47 15 -81 19 -52 6 -65 4 -81 -11 -19 -17 -23 -17 -55 -2 -32 15 -35 15 -59 -4 -24 -18 -27 -19 -55 -4 -50 25 -66 19 -128 -50 l-58 -66 -34 31 c-51 45 -73 40 -118 -27 -50 -76 -65 -78 -98 -13 -23 45 -29 51 -48 45 -55 -17 -64 -16 -93 9 -30 24 -31 25 -58 6 -22 -14 -35 -16 -60 -9 -43 13 -44 12 -61 -21 -9 -16 -21 -30 -27 -30 -6 0 -26 18 -45 40 -23 26 -45 41 -69 46 -42 8 -63 -8 -89 -66 -12 -27 -26 -41 -45 -45 -38 -8 -77 9 -95 45 -17 33 -24 35 -71 18 -31 -11 -35 -10 -55 16 -18 22 -28 27 -58 24 -34 -3 -36 -1 -39 29 -4 45 -46 77 -89 69 -109 -20 -102 -20 -113 9 -5 14 -10 37 -10 51 0 17 -8 27 -25 34 -14 5 -25 15 -25 22 0 17 38 78 47 77 5 0 19 -23 33 -51z m150 -178 c11 -11 20 -33 20 -51 0 -31 1 -31 35 -26 30 5 40 1 66 -24 35 -34 30 -33 75 -14 33 14 35 13 43 -8 16 -42 45 -58 97 -55 48 3 50 4 75 53 22 43 30 50 58 53 28 3 39 -3 75 -42 23 -25 47 -46 53 -46 7 0 21 14 33 30 19 27 25 29 61 24 27 -5 46 -2 63 9 22 15 25 15 42 -5 16 -16 28 -19 67 -15 47 4 48 3 67 -33 29 -56 45 -66 76 -45 14 9 40 39 56 66 17 27 34 49 39 49 4 0 26 -16 50 -36 l43 -36 67 72 67 72 31 -16 c38 -20 61 -20 89 -1 19 14 24 14 47 -1 23 -15 27 -15 50 0 27 18 85 22 85 5 0 -37 -131 -176 -221 -232 -325 -205 -889 -211 -1241 -14 -116 65 -271 230 -255 271 9 23 63 20 87 -4z" fill="#e0e0e6"/>
<path d="M827 1847 c-8 -21 8 -39 29 -35 27 5 25 42 -2 46 -12 2 -24 -3 -27 -11z m33 -13 c0 -8 -5 -12 -10 -9 -6 4 -8 11 -5 16 9 14 15 11 15 -7z" fill="#e0e0e6"/>
<path d="M1084 1806 c-9 -24 4 -48 23 -44 12 2 18 12 18 28 0 29 -32 41 -41 16z m34 -17 c-2 -6 -8 -10 -13 -10 -5 0 -11 4 -13 10 -2 6 4 11 13 11 9 0 15 -5 13 -11z" fill="#e0e0e6"/>
<path d="M1500 1805 c-26 -31 13 -82 44 -56 19 16 21 42 4 59 -16 16 -33 15 -48 -3z m45 -25 c0 -8 -8 -16 -17 -18 -13 -2 -18 3 -18 18 0 15 5 20 18 18 9 -2 17 -10 17 -18z" fill="#e0e0e6"/>
<path d="M932 1788 c-21 -21 -14 -57 14 -70 23 -11 29 -10 45 10 35 44 -20 99 -59 60z m53 -33 c0 -25 -40 -33 -49 -10 -9 24 2 37 27 33 14 -2 22 -10 22 -23z" fill="#e0e0e6"/>
<path d="M1300 1785 c-19 -23 -8 -50 22 -53 19 -2 28 2 33 18 12 39 -29 66 -55 35z m38 -22 c-5 -25 -28 -28 -28 -4 0 12 6 21 16 21 9 0 14 -7 12 -17z" fill="#e0e0e6"/>
<path d="M632 1731 c-19 -11 -11 -45 11 -49 9 -2 20 4 23 13 9 21 -16 47 -34 36z m18 -21 c0 -5 -4 -10 -10 -10 -5 0 -10 5 -10 10 0 6 5 10 10 10 6 0 10 -4 10 -10z" fill="#e0e0e6"/>
<path d="M1142 1711 c-8 -4 -12 -19 -10 -32 2 -18 9 -24 28 -24 28 0 39 27 20 50 -14 17 -20 18 -38 6z m34 -22 c8 -14 -18 -31 -30 -19 -9 9 0 30 14 30 5 0 12 -5 16 -11z" fill="#e0e0e6"/>
<path d="M709 1664 c-9 -11 -10 -20 -2 -32 24 -39 82 -15 68 28 -8 24 -47 27 -66 4z m48 -10 c8 -21 -13 -42 -28 -27 -13 13 -5 43 11 43 6 0 13 -7 17 -16z" fill="#e0e0e6"/>
<path d="M1463 1664 c-7 -20 22 -45 44 -37 8 3 13 15 11 27 -4 27 -45 35 -55 10z m39 -9 c0 -5 -5 -11 -11 -13 -6 -2 -11 4 -11 13 0 9 5 15 11 13 6 -2 11 -8 11 -13z" fill="#e0e0e6"/>
<path d="M1735 1650 c-4 -7 -3 -16 3 -22 14 -14 45 -2 40 15 -6 16 -34 21 -43 7z" fill="#e0e0e6"/>
<path d="M1585 1616 c-25 -18 -15 -51 15 -51 20 0 26 6 28 26 4 31 -18 44 -43 25z m30 -16 c11 -17 -5 -32 -21 -19 -7 6 -11 15 -8 20 7 12 21 11 29 -1z" fill="#e0e0e6"/>
<path d="M1260 1610 c-12 -7 -12 -13 -4 -27 16 -26 39 -22 39 6 0 27 -13 35 -35 21z m30 -20 c0 -5 -4 -10 -10 -10 -5 0 -10 5 -10 10 0 6 5 10 10 10 6 0 10 -4 10 -10z" fill="#e0e0e6"/>
<path d="M1032 1588 c-17 -17 -15 -53 3 -68 20 -17 62 -5 70 21 13 40 -44 76 -73 47z m55 -24 c3 -8 -1 -22 -9 -30 -19 -19 -52 3 -42 29 8 21 43 22 51 1z" fill="#e0e0e6"/>
<path d="M550 1556 c-20 -25 -8 -61 22 -64 37 -4 57 31 32 59 -20 23 -37 24 -54 5z m48 -27 c4 -19 -19 -31 -38 -19 -18 11 -4 42 17 38 10 -2 19 -10 21 -19z" fill="#e0e0e6"/>
<path d="M1406 1544 c-21 -21 -20 -41 3 -54 11 -5 22 -10 25 -10 8 0 36 31 36 40 0 5 -7 16 -16 24 -8 9 -19 16 -24 16 -5 0 -16 -7 -24 -16z m39 -24 c0 -8 -8 -16 -17 -18 -13 -2 -18 3 -18 18 0 15 5 20 18 18 9 -2 17 -10 17 -18z" fill="#e0e0e6"/>
<path d="M760 1480 c-15 -29 -3 -59 26 -66 30 -8 54 11 54 40 0 46 -59 64 -80 26z m68 -28 c-4 -22 -46 -28 -54 -8 -4 9 -1 23 6 31 16 19 53 1 48 -23z" fill="#e0e0e6"/>
<path d="M1694 1485 c-9 -23 3 -45 26 -45 25 0 37 25 20 45 -16 19 -39 19 -46 0z m36 -20 c0 -8 -4 -15 -9 -15 -13 0 -22 16 -14 24 11 11 23 6 23 -9z" fill="#e0e0e6"/>
<path d="M476 1404 c-9 -23 19 -53 35 -37 15 15 7 47 -12 51 -9 2 -19 -5 -23 -14z m34 -14 c0 -5 -4 -10 -10 -10 -5 0 -10 5 -10 10 0 6 5 10 10 10 6 0 10 -4 10 -10z" fill="#e0e0e6"/>
<path d="M1194 1385 c-9 -23 3 -45 24 -45 25 0 44 23 36 44 -8 20 -53 21 -60 1z m41 -13 c0 -18 -20 -15 -23 4 -3 10 1 15 10 12 7 -3 13 -10 13 -16z" fill="#e0e0e6"/>
<path d="M1524 1346 c-10 -26 4 -48 28 -44 17 2 23 10 23 28 0 18 -6 26 -23 28 -13 2 -25 -3 -28 -12z m42 -7 c10 -17 -13 -36 -27 -22 -12 12 -4 33 11 33 5 0 12 -5 16 -11z" fill="#e0e0e6"/>
<path d="M937 1306 c-14 -35 23 -67 50 -45 8 7 13 22 11 33 -4 26 -52 35 -61 12z m48 -17 c0 -7 -8 -15 -17 -17 -18 -3 -25 18 -11 32 10 10 28 1 28 -15z" fill="#e0e0e6"/>
</g>
</svg>