<svg xmlns="http://www.w3.org/2000/svg" version="1.0" width="160.000000pt" height="160.000000pt" viewBox="0 0 160.000000 160.000000" preserveAspectRatio="xMidYMid meet">

<g transform="translate(0.000000,160.000000) scale(0.100000,-0.100000)" fill="#e0e0e6" stroke="none">
<path d="M730 1451 c-139 -45 -214 -179 -181 -319 13 -54 3 -87 -30 -97 -32 -10 -100 -91 -117 -137 l-16 -47 -33 25 c-18 14 -38 22 -43 19 -14 -9 -13 -330 1 -397 47 -226 259 -398 489 -398 230 0 442 172 489 398 14 69 15 369 1 377 -6 4 -26 -5 -45 -19 l-34 -26 -27 60 c-26 58 -109 150 -135 150 -8 0 -10 14 -5 48 17 117 17 140 7 179 -15 56 -66 121 -123 156 -50 31 -147 45 -198 28z m155 -50 c50 -22 109 -86 125 -135 6 -21 10 -56 7 -79 -3 -23 -9 -68 -13 -99 l-6 -56 51 -37 c53 -38 89 -90 115 -162 l15 -41 -70 -62 -70 -62 -95 89 c-53 48 -107 97 -121 107 l-25 19 -108 -108 -108 -108 -81 74 c-76 68 -81 76 -75 104 11 53 52 112 104 149 64 46 76 74 59 143 -6 28 -9 70 -6 93 18 139 176 229 302 171z m-395 -706 c7 -9 31 -30 52 -47 l40 -31 109 109 109 108 37 -35 c117 -109 196 -179 203 -179 4 0 55 43 112 94 l103 95 3 -122 c5 -202 -29 -303 -138 -413 -175 -177 -464 -176 -643 3 -65 65 -112 150 -127 232 -5 29 -10 114 -10 188 l0 135 69 -61 c37 -33 74 -68 81 -76z" fill="#e0e0e6"/>
<path d="M644 1209 c-10 -17 13 -36 27 -22 12 12 4 33 -11 33 -5 0 -12 -5 -16 -11z" fill="#e0e0e6"/>
<path d="M924 1209 c-10 -17 13 -36 27 -22 12 12 4 33 -11 33 -5 0 -12 -5 -16 -11z" fill="#e0e0e6"/>
<path d="M724 1167 c-6 -18 61 -167 76 -167 15 0 82 149 76 167 -4 9 -26 13 -76 13 -50 0 -72 -4 -76 -13z m93 -57 c-6 -16 -14 -30 -17 -30 -3 0 -11 14 -17 30 -11 29 -10 30 17 30 27 0 28 -1 17 -30z" fill="#e0e0e6"/>
<path d="M621 1036 c-12 -14 -5 -26 16 -26 15 0 18 26 4 34 -5 3 -14 0 -20 -8z" fill="#e0e0e6"/>
<path d="M920 1006 c0 -21 21 -31 30 -15 5 7 6 17 4 21 -9 14 -34 9 -34 -6z" fill="#e0e0e6"/>
<path d="M684 989 c-3 -6 -2 -15 4 -21 13 -13 32 -2 32 18 0 16 -26 19 -36 3z" fill="#e0e0e6"/>
<path d="M845 981 c-8 -15 3 -31 21 -31 9 0 14 7 12 17 -4 20 -24 28 -33 14z" fill="#e0e0e6"/>
<path d="M764 969 c-10 -17 13 -36 27 -22 12 12 4 33 -11 33 -5 0 -12 -5 -16 -11z" fill="#e0e0e6"/>
<path d="M404 559 c-10 -17 13 -36 27 -22 12 12 4 33 -11 33 -5 0 -12 -5 -16 -11z" fill="#e0e0e6"/>
<path d="M414 479 c-10 -17 13 -36 27 -22 12 12 4 33 -11 33 -5 0 -12 -5 -16 -11z" fill="#e0e0e6"/>
<path d="M446 401 c-7 -11 18 -33 27 -24 4 3 7 12 7 20 0 15 -26 18 -34 4z" fill="#e0e0e6"/>
<path d="M495 341 c-8 -15 3 -31 21 -31 9 0 14 7 12 17 -4 20 -24 28 -33 14z" fill="#e0e0e6"/>
<path d="M556 281 c-7 -11 18 -33 27 -24 4 3 7 12 7 20 0 15 -26 18 -34 4z" fill="#e0e0e6"/>
<path d="M626 241 c-7 -11 18 -33 27 -24 4 3 7 12 7 20 0 15 -26 18 -34 4z" fill="#e0e0e6"/>
<path d="M705 221 c-8 -15 3 -31 21 -31 9 0 14 7 12 17 -4 20 -24 28 -33 14z" fill="#e0e0e6"/>
</g>
</svg>