<svg xmlns="http://www.w3.org/2000/svg" version="1.0" width="225.000000pt" height="225.000000pt" viewBox="0 0 225.000000 225.000000" preserveAspectRatio="xMidYMid meet">

<g transform="translate(0.000000,225.000000) scale(0.100000,-0.100000)" fill="#e0e0e6" stroke="none">
<path d="M1303 2143 c-34 -12 -43 -20 -43 -38 0 -21 -6 -24 -62 -30 -81 -9 -158 -38 -189 -71 -13 -14 -42 -33 -65 -43 -54 -24 -118 -83 -135 -124 -7 -17 -32 -54 -56 -81 -70 -82 -145 -242 -142 -305 1 -19 3 -15 9 14 26 128 116 278 214 353 54 42 244 26 405 -35 131 -49 260 -124 281 -163 6 -11 18 -65 27 -120 9 -55 18 -98 21 -96 2 3 -1 34 -7 71 -5 36 -7 73 -4 81 3 8 0 14 -6 14 -6 0 -11 8 -11 19 0 100 -364 261 -589 261 -63 0 -93 -4 -109 -16 -32 -22 -36 -13 -9 23 35 47 85 86 136 103 26 8 46 21 46 30 0 16 48 46 90 55 l30 7 -34 -29 c-19 -15 -44 -31 -55 -35 -15 -4 -11 -6 16 -7 133 -4 308 -76 397 -164 64 -63 92 -114 101 -187 7 -53 7 -53 9 -13 0 24 -5 60 -13 80 -7 21 -19 67 -25 103 -7 36 -26 93 -43 128 -31 63 -39 106 -24 131 10 16 -66 89 -98 95 -12 2 -40 -3 -63 -11z m86 -12 c11 -11 32 -28 46 -37 25 -16 26 -19 10 -30 -10 -8 -12 -14 -6 -19 6 -3 11 -16 11 -28 0 -19 -2 -19 -32 10 -44 41 -70 53 -113 53 -32 0 -36 3 -33 23 2 12 10 22 18 22 8 1 24 6 35 13 28 16 42 15 64 -7z m-22 -87 c12 -17 19 -144 8 -144 -3 0 -24 9 -47 21 -49 25 -114 49 -148 55 -14 2 -40 6 -57 9 -18 3 -33 9 -33 14 0 9 72 50 108 61 47 15 154 5 169 -16z m79 -66 c8 -15 15 -42 15 -60 l1 -33 7 30 6 30 17 -45 c18 -49 38 -119 38 -135 0 -5 -12 5 -27 24 -18 23 -27 46 -26 65 2 31 2 31 -5 4 l-7 -28 -40 33 -40 32 0 77 0 77 23 -22 c13 -12 30 -34 38 -49z" fill="#e0e0e6"/>
<path d="M1243 2029 c-24 -17 -43 -35 -43 -41 0 -7 12 0 28 14 15 14 38 32 52 41 13 10 20 17 15 17 -6 -1 -29 -14 -52 -31z" fill="#e0e0e6"/>
<path d="M784 1668 c-68 -48 -114 -147 -114 -247 0 -106 39 -192 116 -251 21 -16 45 -34 52 -40 6 -6 12 -7 12 -2 0 6 -12 18 -27 27 -49 31 -84 69 -111 120 -24 44 -27 61 -27 145 0 80 4 102 24 140 78 149 201 161 241 24 15 -51 5 -147 -16 -165 -32 -26 -35 -46 -14 -93 16 -38 24 -46 46 -46 14 0 39 11 56 25 49 41 57 27 9 -16 -52 -46 -88 -49 -108 -9 -7 14 -13 19 -13 12 0 -30 21 -52 51 -52 22 0 44 13 82 47 29 26 54 49 57 51 2 1 -1 12 -8 22 -31 49 -3 159 54 212 113 106 256 56 290 -101 10 -47 12 -50 13 -21 1 69 -58 155 -122 179 -113 43 -257 -70 -257 -203 l0 -34 -37 19 c-21 10 -46 19 -56 19 -16 0 -17 6 -11 58 17 153 -82 251 -182 180z m242 -264 c19 -9 41 -26 50 -38 14 -20 13 -21 -18 -29 -76 -19 -93 -19 -121 3 -32 26 -33 34 -7 60 24 24 51 25 96 4z m-33 -94 c18 0 19 -2 7 -10 -24 -16 -60 -12 -60 6 0 11 5 14 16 10 9 -3 25 -6 37 -6z" fill="#e0e0e6"/>
<path d="M782 1538 c-17 -17 -15 -63 3 -78 15 -12 37 -3 57 25 23 31 -11 58 -38 30 -15 -14 -15 -20 -5 -37 10 -16 10 -19 -1 -16 -20 7 -22 47 -2 69 18 20 6 27 -14 7z" fill="#e0e0e6"/>
<path d="M843 1532 c10 -10 17 -25 17 -32 0 -7 -7 -22 -17 -32 -10 -11 -12 -18 -4 -18 21 0 36 47 23 75 -6 14 -17 25 -23 25 -8 0 -6 -7 4 -18z" fill="#e0e0e6"/>
<path d="M1204 1464 c-37 -55 25 -117 80 -80 42 27 32 107 -13 105 -11 0 -8 -4 7 -11 19 -9 22 -18 20 -47 -2 -28 -8 -38 -30 -45 -22 -8 -32 -6 -48 9 -27 25 -25 49 6 74 19 15 22 21 11 21 -9 0 -24 -12 -33 -26z" fill="#e0e0e6"/>
<path d="M1250 1461 c0 -6 -7 -11 -15 -11 -20 0 -20 -46 1 -54 27 -10 56 12 52 42 -3 26 -38 46 -38 23z" fill="#e0e0e6"/>
<path d="M601 1384 c-2 -72 25 -140 79 -196 56 -58 58 -46 -23 -138 -77 -88 -149 -257 -130 -307 8 -20 38 -16 70 10 15 13 49 40 74 60 l46 37 -4 -117 c-3 -65 -1 -128 4 -141 6 -15 7 12 5 75 -2 54 0 122 6 151 5 28 7 52 3 52 -3 -1 -42 -30 -86 -66 -44 -35 -87 -63 -95 -61 -35 6 7 150 71 244 47 68 119 143 137 143 9 0 -4 13 -29 28 -72 46 -106 112 -122 237 -3 24 -4 22 -6 -11z" fill="#e0e0e6"/>
<path d="M1441 1374 c-2 -44 -53 -140 -105 -200 l-45 -51 25 -62 c40 -98 65 -234 73 -391 l8 -145 1 105 c2 156 -34 363 -79 451 l-18 36 46 54 c57 68 106 168 100 206 -4 28 -4 28 -6 -3z" fill="#e0e0e6"/>
<path d="M1553 1350 c0 -25 2 -35 4 -22 2 12 2 32 0 45 -2 12 -4 2 -4 -23z" fill="#e0e0e6"/>
<path d="M1526 1243 c-13 -43 -30 -70 -65 -103 -44 -43 -45 -45 -21 -46 36 -1 172 -70 220 -111 41 -35 70 -80 70 -107 0 -9 -14 -20 -32 -25 -18 -5 -25 -10 -15 -10 27 -1 57 17 57 35 0 60 -93 146 -215 199 -75 32 -75 32 -54 51 26 23 64 97 74 142 11 51 0 37 -19 -25z" fill="#e0e0e6"/>
<path d="M874 1116 c-3 -8 -4 -23 -1 -33 3 -12 5 -9 6 9 1 22 6 27 34 31 l32 4 -33 1 c-20 1 -35 -3 -38 -12z" fill="#e0e0e6"/>
<path d="M968 1109 c36 -14 26 -51 -18 -66 -19 -7 -27 -12 -17 -12 11 -1 31 6 46 15 26 15 29 15 65 -10 53 -36 74 -34 92 10 17 42 13 65 -13 63 -17 -1 -17 -2 0 -6 15 -4 17 -11 12 -31 -14 -55 -32 -63 -82 -33 -23 15 -30 25 -26 40 3 11 12 22 22 25 9 2 -1 3 -21 1 -21 -2 -40 1 -43 6 -4 5 -14 9 -23 8 -12 0 -10 -3 6 -10z m52 -30 c0 -5 -4 -9 -10 -9 -5 0 -10 7 -10 16 0 8 5 12 10 9 6 -3 10 -10 10 -16z" fill="#e0e0e6"/>
<path d="M1078 1113 c7 -3 16 -2 19 1 4 3 -2 6 -13 5 -11 0 -14 -3 -6 -6z" fill="#e0e0e6"/>
<path d="M834 993 c-14 -202 22 -448 80 -546 25 -43 89 -87 127 -87 8 0 -9 11 -37 24 -58 27 -87 62 -113 139 -35 100 -46 196 -45 390 0 103 -1 187 -2 187 -1 0 -5 -48 -10 -107z" fill="#e0e0e6"/>
<path d="M880 1053 c0 -6 8 -17 18 -24 16 -13 16 -13 2 6 -8 11 -16 22 -17 24 -2 2 -3 0 -3 -6z" fill="#e0e0e6"/>
<path d="M1534 808 c27 -53 31 -73 31 -142 0 -68 -4 -90 -28 -137 -50 -103 -165 -182 -308 -214 -35 -7 -52 -14 -38 -14 14 -1 48 6 75 14 71 21 74 20 74 -26 0 -22 5 -49 10 -60 15 -27 55 -24 79 7 22 28 61 125 61 152 0 9 -11 -12 -23 -48 -28 -79 -46 -108 -70 -116 -31 -10 -47 14 -47 71 0 50 2 53 32 66 18 7 47 26 66 43 28 24 35 27 43 15 8 -10 9 -9 5 7 -4 13 1 27 13 38 27 24 61 108 68 165 6 55 -9 135 -37 192 l-19 41 72 -5 c58 -5 63 -4 27 3 -25 5 -61 9 -81 9 l-36 1 31 -62z" fill="#e0e0e6"/>
<path d="M731 550 c-1 -25 35 -94 69 -134 l33 -37 -40 -42 c-85 -88 -77 -110 39 -104 l73 3 -77 2 c-42 1 -79 6 -82 10 -7 12 48 86 78 105 21 14 26 14 54 -3 18 -11 54 -27 82 -36 27 -9 50 -20 50 -24 0 -4 -14 -13 -30 -20 -17 -7 -29 -15 -26 -17 6 -6 60 23 74 40 11 12 6 16 -30 21 -102 15 -217 111 -252 211 -8 22 -15 33 -15 25z" fill="#e0e0e6"/>
<path d="M1381 508 c-2 -51 -134 -146 -206 -149 -24 -1 -25 -3 -7 -6 28 -6 86 13 134 44 42 26 93 95 85 115 -4 8 -6 7 -6 -4z" fill="#e0e0e6"/>
<path d="M1073 353 c9 -2 25 -2 35 0 9 3 1 5 -18 5 -19 0 -27 -2 -17 -5z" fill="#e0e0e6"/>
<path d="M1078 293 c18 -2 45 -2 60 0 15 2 0 4 -33 4 -33 0 -45 -2 -27 -4z" fill="#e0e0e6"/>
<path d="M918 243 c7 -3 16 -2 19 1 4 3 -2 6 -13 5 -11 0 -14 -3 -6 -6z" fill="#e0e0e6"/>
</g>
</svg>