<svg xmlns="http://www.w3.org/2000/svg" version="1.0" width="155.000000pt" height="120.000000pt" viewBox="0 0 155.000000 120.000000" preserveAspectRatio="xMidYMid meet">

<g transform="translate(0.000000,120.000000) scale(0.100000,-0.100000)" fill="#e0e0e6" stroke="none">
<path d="M285 1160 c-46 -47 -39 -67 8 -23 17 16 43 37 57 46 l24 17 -25 0 c-16 0 -39 -14 -64 -40z" fill="#e0e0e6"/>
<path d="M1184 1165 c25 -20 46 -40 46 -45 0 -6 5 -10 10 -10 6 0 10 6 10 14 0 20 -67 76 -92 76 -16 0 -11 -7 26 -35z" fill="#e0e0e6"/>
<path d="M415 1101 c-47 -12 -87 -36 -126 -78 -50 -52 -70 -96 -76 -163 -15 -159 91 -286 246 -298 123 -8 223 46 271 146 l23 49 24 -48 c62 -124 208 -180 344 -134 133 46 206 196 165 340 -24 81 -100 157 -181 181 -135 39 -265 -18 -329 -144 l-23 -45 -22 46 c-55 114 -192 178 -316 148z m141 -26 c211 -63 246 -351 56 -462 -41 -24 -58 -28 -127 -28 -69 0 -86 4 -127 28 -144 84 -170 289 -51 398 80 74 153 93 249 64z m542 0 c75 -23 145 -94 167 -170 21 -72 15 -129 -22 -196 -64 -119 -214 -164 -334 -101 -180 94 -186 336 -10 444 62 39 122 46 199 23z" fill="#e0e0e6"/>
<path d="M405 1014 c-40 -20 -83 -62 -101 -97 -19 -35 -21 -111 -5 -159 22 -66 112 -128 186 -128 72 0 149 51 180 119 20 45 15 71 -13 71 -25 0 -45 24 -40 47 2 10 16 24 31 31 30 15 30 16 -18 70 -49 58 -156 80 -220 46z" fill="#e0e0e6"/>
<path d="M925 1001 c-117 -67 -136 -212 -41 -307 72 -73 174 -82 255 -23 69 49 104 149 53 149 -46 0 -55 55 -12 77 29 15 28 28 -8 67 -65 70 -164 85 -247 37z" fill="#e0e0e6"/>
<path d="M685 556 c-30 -30 -32 -69 -5 -96 21 -21 65 -27 75 -10 3 6 -5 10 -19 10 -35 0 -62 41 -46 69 10 20 27 26 59 22 7 -2 11 4 9 11 -8 23 -46 20 -73 -6z" fill="#e0e0e6"/>
<path d="M915 403 c-100 -33 -120 -36 -225 -37 -101 0 -125 3 -194 28 -78 28 -78 28 -105 9 -30 -22 -56 -92 -47 -126 9 -37 49 -90 85 -114 77 -52 254 -81 386 -64 224 30 345 108 345 221 0 54 -20 87 -66 106 -46 19 -54 18 -179 -23z m105 -112 l0 -119 -47 -16 c-92 -29 -85 -35 -90 91 -4 122 -6 116 62 144 76 32 75 34 75 -100z m95 94 c45 -44 28 -130 -35 -175 l-30 -21 0 110 c0 105 1 111 20 111 12 0 32 -11 45 -25z m-640 -7 c24 -11 25 -14 25 -115 0 -116 -2 -119 -63 -78 -65 45 -88 124 -52 179 19 28 48 33 90 14z m168 -38 l37 0 0 -110 0 -110 -32 0 c-43 0 -111 19 -120 34 -9 13 -11 190 -2 198 3 3 22 2 42 -3 20 -5 54 -9 75 -9z m215 -97 l-3 -118 -64 -7 c-35 -4 -68 -5 -73 -2 -4 3 -8 54 -8 115 l0 109 38 1 c20 1 48 5 62 9 51 16 51 18 48 -107z" fill="#e0e0e6"/>
</g>
</svg>