<svg xmlns="http://www.w3.org/2000/svg" class="svg-icon" style="width: 1.1416015625em; height: 1em;vertical-align: middle;fill: currentColor;overflow: hidden;" viewBox="0 0 1169 1024" version="1.1"><path d="M1150.277313 560.437486l-5.431554 26.385707c-7.612304 37.275906-22.037754 62.076846-42.863229 73.718794a53.658613 53.658613 0 0 1-26.3383 6.941825c-1.720218 0-3.257578-0.121905-4.747531-0.257355-15.47519 30.381489-35.677594 49.466428-60.221177 56.801059a77.789074 77.789074 0 0 1-22.342517 3.23726c-11.980574 0-22.559238-2.661597-30.936836-5.702455a414.112023 414.112023 0 0 1-6.447431 20.378489c85.67905 76.962827 95.919089 105.935634 84.067192 124.993483-5.905631 9.488289-17.852342 13.321531-33.280124 13.321531-29.264025 0-71.036879-13.80238-108.150245-28.945717-74.876893 101.939852-195.265068 168.235972-330.82367 168.235973-101.323553 0-194.134059-37.086276-265.848189-98.35042-39.17221 20.188858-67.433903 30.178314-87.094505 30.178313-12.129569 0-21.042195-3.751972-27.347404-11.127237-21.712674-25.39692 10.592209-80.945064 32.961816-113.249947a411.016985 411.016985 0 0 1-57.065187-292.213578c-10.734432-1.076829-19.159437-4.713668-25.498508-10.957925-5.871768-5.783725-12.40047-16.6062-10.240038-35.366058 5.235152-45.274243-17.100593-51.857125-40.73666-58.82604-9.278342-2.729322-18.048745-5.309649-24.435224-10.802157-4.117687-3.548796-8.689133-10.389034-7.138227-22.904635 0.636616-5.160654 2.546465-11.662266 5.282559-18.922399-9.237706-1.083602-17.804934-3.230488-25.119247-7.00955-13.463754-6.948597-22.173205-18.705678-25.1802-34.031873-3.02054-15.33974 0.413123-29.067622 9.914958-39.686921 24.110143-26.968143 81.723903-28.017882 107.195321-27.035868 11.24237-12.80682 22.091934-22.715005 31.092603-27.211954 7.700346-3.860332 30.95038-15.454873 188.296153 17.351176-0.738204-22.477968-4.524038-39.36184-10.849564-48.057746-2.53292-3.487844-5.167427-7.043413-7.835797-10.646389-24.428451-32.955044-52.121253-70.31222-26.920735-93.067861 5.262242-4.761076 17.222498-12.414015 37.817707-10.659934 27.868887 2.444877 74.843031 23.195854 141.897673 106.992146a410.353279 410.353279 0 0 1 86.850695-9.346066c13.260579 0 27.029096 0.717886 41.027878 2.133341 18.854674-22.356062 18.759858-48.240604-0.230265-78.913311C574.071986 70.18211 565.775659 38.940512 577.458242 19.503402 584.765783 7.346743 597.796096 3.764084 606.708722 4.421018l4.740758 0.338625 3.704564 2.99345c11.181417 8.993896 109.59279 89.105941 123.171677 131.820175 6.190076 19.484517 1.191962 48.999125-14.865664 87.866572 150.27527 64.257595 250.163051 214.803765 250.163051 379.633164 0 29.006669-3.040858 57.308997-8.73654 84.642856 8.729768 3.596204 22.742096 7.348176 37.343631 2.885091 16.870328-5.153882 31.302551-20.148223 43.018997-44.468315-15.66482-21.313095-21.638176-44.136461-17.581441-68.023111 11.702901-68.950945 104.967165-119.609336 108.929084-121.729132l21.760081-11.655493 0.670479 24.739986c0.13545 5.235152 0.297991 9.562787 0.426668 13.280896 0.914289 24.888982 0.535028 26.724333-9.176754 73.691704z m-142.574924 289.565527c-2.519374-7.070503-14.411906-27.882432-68.646182-77.592671a412.818474 412.818474 0 0 1-27.923068 52.947499c41.772854 16.301437 82.84814 26.866555 96.56925 24.645172zM562.761891 988.92078c128.041113 0 241.42651-63.912196 310.391001-161.558275-13.551797-32.853456-37.343632-73.136358-55.839362-74.206415-9.508607-0.799156-20.459759 11.432-30.943608 32.833138-6.108806 12.447877-11.228825 23.209399-15.644503 32.474196-29.033759 61.027106-33.984466 67.630306-86.010903 64.020557-14.879209-1.022649-35.26447-2.424559-63.688704-1.815034-31.072285 0.643389-54.823485 10.253583-70.596666 28.539366-21.407911 24.821257-24.204958 59.855462-24.055963 77.924524 11.980574 1.151327 24.110143 1.787943 36.388708 1.787943z m-356.952022-68.341419c0.10836-0.047408 1.009104 0.440213 3.941602 0.426668 6.840237 0 24.130461-2.742867 63.133358-21.915849a415.744199 415.744199 0 0 1-38.799722-44.80694c-18.942716 29.663603-31.796944 58.758315-28.275238 66.296121z m79.712468-52.473424c46.581338 26.913963 93.027226 12.64428 111.042108 5.113247 19.057849-7.984792 29.927731-17.385038 34.621081-23.121356a53.902424 53.902424 0 0 0-7.449763-0.033863c-25.498508 1.327412-44.976253-5.045521-57.945613-19.166209-22.762413-24.773849-17.398584-64.169552-14.195186-87.690486 0.636616-4.700123 1.29355-9.54247 1.29355-11.641949 0-14.438996-4.808484-39.03676-18.06229-47.69203-8.736541-5.702455-21.766854-4.761076-38.738769 2.783503-43.709793 19.457427-80.559031 12.488512-104.770761 2.383924 14.946934 68.307557 48.145788 129.788421 94.205643 179.065219zM30.340854 309.915492c-5.275787 5.905631-6.894417 12.928726-5.092929 22.10548 1.842123 9.359612 6.460977 15.658048 14.527038 19.823142 6.609972 3.406574 14.994342 5.065839 24.428451 5.492508 10.565119-21.556906 25.857451-46.412025 41.820263-67.772529-26.805603 0.514711-61.81949 4.835574-75.682823 20.351399z m739.287418-23.060403c-29.704238 7.165318-70.996244 22.335745-80.694481 37.397811-1.828578 2.851228-1.51027 4.327635-1.354503 5.031977 1.916621 8.912626 11.614858 14.926617 27.293224 23.99501 24.198186 14.0191 57.34286 33.192082 58.534822 83.403486a95.160567 95.160567 0 0 0 36.44966 72.79096c18.19774 14.29 40.133907 20.750977 57.31577 16.971915 28.891537-6.447431 46.120807-39.185755 51.87067-52.080618-28.471641-76.373619-80.823159-142.574924-149.415162-187.510541z m161.849494 227.387092c-12.325972 17.500171-31.173873 36.17876-57.695031 42.091163-5.451872 1.21228-11.10692 1.815033-16.8771 1.815033-21.976802 0-45.585779-8.641725-65.849135-24.563901a125.704597 125.704597 0 0 1-48.139015-96.162899c-0.785611-33.015996-20.480077-44.407362-43.283125-57.606988-18.184195-10.524484-36.991461-21.407911-41.874442-44.048418-2.058844-9.562787-0.13545-19.301659 5.560232-28.139788 12.678143-19.68092 43.750428-33.51039 69.431794-42.0573a374.716321 374.716321 0 0 0-34.96648-15.50228l-15.238152-5.810815 6.79283-14.872437c24.204958-53.089722 22.003892-73.982922 19.92473-80.504851-7.673256-24.137233-66.458661-78.784633-106.206534-111.550046-0.684024 5.289332 0.413123 22.328972 26.406024 64.311774 27.889205 45.05075 24.706124 88.367738-8.953261 122.000033l-5.228379 5.228379-7.327858-0.880426a385.708108 385.708108 0 0 0-45.192973-2.769958c-29.900641 0-59.929959 3.589431-89.261709 10.673479l-9.535697 2.316199-6.047854-7.768071C388.54579 141.415392 346.29886 128.764339 331.365471 127.464017c-7.788389-0.704341-12.813593 1.124237-14.764077 2.905408-1.747308 7.869659 20.364944 37.68903 30.984243 52.026437 2.729322 3.677474 5.424782 7.314313 8.011882 10.876655 11.167872 15.360057 16.836465 40.398035 16.843238 74.40959v8.60109l-7.321086 4.476631c-2.898635 1.774398-5.709228 3.670702-8.533365 5.560232l-8.499503 5.66182-6.237484-1.313867c-148.38574-31.329641-172.495883-22.369607-174.757901-21.231825-16.484294 8.242147-46.811603 49.926959-66.851467 84.859576 21.123465-3.785834 43.32376-10.436441 62.144571-17.120911a74.037102 74.037102 0 0 1 9.989455-23.595432c7.043413-10.951152 16.314982-19.687693 26.108034-24.631626 11.391365-5.756635 22.816593-5.864995 31.363504-0.325081 8.54691 5.546687 13.138673 16.064399 12.583327 28.844129-0.460531 10.991787-4.605308 23.073949-11.648721 34.011556-7.043413 10.94438-16.321754 19.687693-26.108034 24.638399-5.804043 2.932498-11.621631 4.39536-17.059958 4.39536-5.235152 0-10.118133-1.354502-14.310318-4.077052-5.925948-3.846787-9.698237-9.969138-11.425227-17.330859-21.665266 7.442991-48.294784 14.926617-73.535936 17.662712-3.955147 8.38437-6.650607 15.50228-7.537806 20.432669 2.797047 1.029422 6.596427 2.153659 9.677919 3.061175 24.685807 7.266905 70.637301 20.805157 62.456107 91.726904-0.568891 4.896526-0.088043 8.614635 1.286777 9.969138 1.916621 1.889531 8.54691 3.514934 20.845792 1.83535l16.63329-2.268791c24.794167-4.273455 73.14313-16.348844 101.323553-48.260921l22.830138 20.310763c-37.553579 42.524603-100.104501 55.582007-125.934862 59.286571-4.896526 24.739987-7.524261 49.649286-7.524261 74.213187 0 14.865664 0.941379 29.514608 2.600645 43.946831 12.285337 8.587545 49.662831 29.487518 98.722908 7.646166 27.015551-12.021209 49.791509-12.183749 67.738666-0.467303 30.395034 19.857005 31.932394 64.589448 31.932395 73.366623 0 4.185412-0.697569 9.298659-1.577996 15.779954-2.471967 18.190967-6.616744 48.619864 6.400024 62.794732 6.501612 7.070503 17.845569 10.267128 33.855788 9.346066 27.130683-1.469635 37.106594 8.770403 40.621527 17.642394 3.02054 7.625849 4.659488 23.310987-18.285782 42.822594-20.161768 17.141228-57.952386 34.438224-100.327994 34.438224-2.336517 0-4.693351-0.10836-7.050185-0.21672a377.655591 377.655591 0 0 0 158.876361 68.72068c0.392806-23.581887 5.370602-63.478756 31.471863-93.731568 21.658494-25.112475 52.947499-38.271466 93.006909-39.118029 29.771963-0.589209 50.963153 0.826246 66.418026 1.896303 19.044304 1.29355 26.961371 1.699901 31.106147-1.517043 6.041081-4.693351 13.287669-19.924731 25.302106-45.152338a2834.431754 2834.431754 0 0 1 15.793498-32.819593c16.90419-34.431451 37.126911-51.152784 60.092499-49.866007 32.955044 1.923393 58.724452 42.626191 73.752657 73.8407a380.466183 380.466183 0 0 0 50.272357-189.352666c0-31.722447-4.063507-62.848912-11.641948-92.830823zM205.782779 341.814024c-3.061175 1.395137-12.055071 5.411237-24.631626 10.273901 0.372488 3.501389 1.489953 6.095261 3.196626 7.205953 2.289109 1.489953 6.481294 0.961697 11.181417-1.415455 6.515157-3.291441 13.138673-9.664375 18.17065-17.486626 5.038749-7.815479 8.106697-16.491067 8.418233-23.80538 0.223493-5.282559-1.015877-9.318977-3.311759-10.815702a6.081716 6.081716 0 0 0-3.311758-0.833019c-2.207839 0-4.937161 0.765294-7.876432 2.241701-6.515157 3.284668-13.131901 9.657602-18.17065 17.479854-0.575664 0.907517-1.002332 1.781171-1.517042 2.66837 3.487844-1.45609 6.745422-2.858 9.440881-4.090598a10.104588 10.104588 0 0 1 13.463754 5.072612c2.322972 5.126792 0.060953 11.174645-5.052294 13.504389zM1057.730936 587.290497c-2.905408 17.168318 2.255247 33.408802 15.766408 49.493518 3.108583 0.331853 8.458868 0.060953 14.174868-3.304986 8.553683-5.038749 20.236266-18.292555 27.293223-52.812049l5.4451-26.44666c6.989232-33.801608 8.750086-42.307883 8.865218-53.319987-25.566233 17.432446-65.381832 49.899869-71.544817 86.390164z m-485.358851 232.161714c-8.120242 3.169536-16.206621 4.754303-24.096597 4.754303a57.600215 57.600215 0 0 1-26.785286-6.596427c-43.344077-22.498285-59.252708-94.788079-60.925518-102.962501a15.305877 15.305877 0 0 1 11.851896-18.069062 15.299105 15.299105 0 0 1 18.021654 11.899304c3.772289 18.238375 19.220389 68.551367 45.091386 81.947396 8.46564 4.39536 17.269906 4.293773 27.713119-0.311536l3.460754-1.523815 3.758744 0.270901c0.250583-0.033863 10.280673 0.277673 16.57911-8.425005 6.311981-8.722996 13.565342-32.528375-8.817811-93.90088a15.319422 15.319422 0 0 1 9.081939-19.633513 15.251697 15.251697 0 0 1 19.565787 9.109029c20.988015 57.566353 22.437333 99.000582 4.300545 123.164904-11.472635 15.292332-28.248148 19.850233-38.799722 20.276902z m-151.97517-415.344621c-4.537583 0-9.109029-0.704341-13.592432-2.214611-24.387816-8.160877-37.011778-36.544475-28.14656-63.268808 8.871991-26.731105 35.962039-41.860897 60.33631-33.67293 19.728328 6.603199 32.426788 26.968143 30.86911 49.527381a56.232168 56.232168 0 0 1-2.729323 13.754972c-7.239815 21.807489-26.602427 35.873996-46.737105 35.873996z m8.95326-70.109045a12.894863 12.894863 0 0 0-4.016099-0.643389c-3.359166 0-6.203621 1.29355-7.842569 2.248474-4.544356 2.654825-8.059289 7.17209-9.89464 12.705233-3.494616 10.524484 0.562119 21.760081 8.851673 24.536811 8.323417 2.790275 18.258693-3.765517 21.753309-14.303545 0.670479-2.024981 1.083602-4.104142 1.225824-6.176531 0.595981-8.62818-3.548796-16.179531-10.077498-18.367053z" fill="#e0e0e6"/></svg>