<svg xmlns="http://www.w3.org/2000/svg" version="1.0" width="235.000000pt" height="188.000000pt" viewBox="0 0 235.000000 188.000000" preserveAspectRatio="xMidYMid meet">

<g transform="translate(0.000000,188.000000) scale(0.100000,-0.100000)" fill="#e0e0e6" stroke="none">
<path d="M1522 1708 c-55 -34 -65 -65 -63 -208 l1 -127 -54 -6 c-73 -7 -124 -31 -233 -110 -51 -37 -97 -67 -103 -67 -5 0 -33 18 -62 40 -92 70 -182 110 -249 110 -33 0 -59 3 -59 8 0 4 14 61 31 127 44 175 30 225 -62 225 -42 0 -53 -5 -81 -34 -19 -19 -62 -82 -97 -140 -34 -58 -64 -106 -67 -106 -2 0 -11 15 -20 33 -23 45 -64 87 -87 87 -28 0 -72 -29 -89 -59 -9 -15 -20 -82 -28 -161 -18 -196 -42 -299 -96 -407 -38 -78 -46 -105 -51 -169 -5 -60 -11 -82 -30 -104 -70 -83 26 -253 190 -335 51 -25 83 -35 118 -35 48 0 79 17 79 44 0 27 35 41 129 52 53 6 124 17 159 25 l62 13 83 -42 c60 -31 94 -42 127 -42 42 0 84 18 102 44 5 8 13 7 25 -2 10 -7 34 -20 53 -29 32 -14 39 -14 85 2 28 10 62 26 77 36 61 44 89 49 169 33 41 -8 114 -20 164 -27 74 -11 92 -17 100 -34 22 -44 37 -53 84 -53 129 0 283 121 331 260 11 33 10 41 -19 98 -17 34 -31 76 -31 94 -1 55 -19 120 -54 188 -58 113 -74 176 -123 475 -20 124 -39 155 -93 155 -35 0 -77 -38 -87 -79 -3 -14 -8 -30 -10 -34 -3 -5 -31 49 -63 118 -54 115 -89 165 -115 164 -5 0 -25 -10 -43 -21z m54 -36 c11 -6 74 -122 74 -135 0 -3 16 -41 36 -84 20 -43 44 -98 54 -123 36 -88 110 -239 121 -246 20 -12 2 43 -46 144 -51 107 -58 168 -26 238 23 50 34 58 60 44 25 -13 25 -14 56 -195 34 -199 65 -306 121 -417 51 -100 66 -186 46 -261 -10 -35 -9 -38 6 -32 42 18 52 17 52 -2 0 -33 -50 -121 -94 -166 -76 -79 -214 -131 -246 -92 -9 11 -8 20 9 43 l21 29 -118 0 c-125 -1 -199 16 -255 57 -27 19 -29 20 -55 4 -149 -92 -200 -112 -239 -95 -32 14 -48 60 -33 96 23 57 78 94 238 161 115 49 164 88 195 159 26 58 27 142 4 203 -32 84 -136 158 -221 158 -23 0 -26 -4 -24 -27 3 -24 -3 -31 -42 -50 -79 -41 -160 -24 -160 34 0 52 191 190 277 200 36 5 57 -2 147 -45 82 -41 113 -62 150 -104 25 -29 53 -67 61 -85 18 -37 40 -45 29 -10 -21 70 -67 129 -135 175 -82 55 -129 129 -143 225 -18 120 28 233 80 199z m-884 -29 c24 -21 24 -79 0 -164 -25 -89 -62 -150 -124 -201 -118 -99 -152 -134 -174 -186 -13 -29 -24 -57 -24 -62 0 -21 16 -8 42 33 90 142 222 231 341 231 77 -1 158 -39 235 -111 41 -39 52 -56 52 -80 0 -37 -22 -63 -53 -63 -12 0 -51 8 -87 19 -65 18 -67 21 -59 66 4 18 -1 20 -39 17 -54 -3 -107 -30 -148 -74 -54 -56 -68 -95 -69 -178 0 -146 56 -206 280 -299 61 -25 121 -53 133 -63 33 -23 55 -89 41 -125 -22 -59 -56 -57 -186 12 -57 30 -110 55 -118 55 -8 0 -30 -11 -49 -24 -51 -34 -187 -53 -275 -38 -36 6 -68 9 -70 6 -3 -3 0 -14 7 -24 19 -30 15 -68 -8 -75 -47 -15 -169 47 -228 116 -50 59 -82 114 -82 140 0 35 8 41 36 22 l24 -15 -6 73 c-8 89 9 164 62 277 37 81 52 145 79 332 23 165 37 222 58 234 25 16 48 -2 80 -65 35 -67 33 -113 -12 -198 -47 -91 -74 -164 -59 -159 7 2 65 105 128 229 120 234 162 303 206 338 32 25 42 26 66 4z m754 -568 c47 -36 88 -127 81 -181 -11 -104 -93 -180 -262 -243 -67 -26 -99 -45 -138 -82 l-51 -49 -25 23 c-48 44 -91 68 -171 98 -178 64 -248 147 -238 275 5 61 44 128 91 154 25 14 30 13 99 -23 101 -52 131 -59 187 -45 25 7 91 12 146 12 l100 1 65 42 c36 24 69 43 74 43 5 0 24 -11 42 -25z" fill="#e0e0e6"/>
<path d="M1980 856 c0 -10 7 -43 16 -74 14 -47 18 -53 25 -36 10 27 -5 92 -25 113 -15 14 -16 14 -16 -3z" fill="#e0e0e6"/>
<path d="M1900 798 c0 -26 36 -128 51 -142 21 -23 18 12 -12 127 -11 41 -39 52 -39 15z" fill="#e0e0e6"/>
<path d="M1827 743 c-14 -14 -6 -48 23 -95 17 -26 30 -53 30 -58 0 -6 5 -10 10 -10 6 0 10 3 10 8 0 16 -28 141 -35 151 -7 12 -28 14 -38 4z" fill="#e0e0e6"/>
<path d="M152 843 c-24 -44 -26 -163 -3 -137 16 18 35 134 23 146 -7 7 -13 5 -20 -9z" fill="#e0e0e6"/>
<path d="M223 788 c-11 -17 -31 -158 -22 -158 7 0 59 140 59 159 0 15 -27 14 -37 -1z" fill="#e0e0e6"/>
<path d="M280 698 c-20 -43 -27 -128 -11 -128 13 0 73 126 69 146 -7 37 -37 28 -58 -18z" fill="#e0e0e6"/>
</g>
</svg>