<svg xmlns="http://www.w3.org/2000/svg" version="1.0" width="433.000000pt" height="512.000000pt" viewBox="0 0 433.000000 512.000000" preserveAspectRatio="xMidYMid meet">

<g transform="translate(0.000000,512.000000) scale(0.100000,-0.100000)" fill="#e0e0e6" stroke="none">
<path d="M2155 4854 c-222 -32 -421 -186 -524 -406 -12 -25 -28 -49 -36 -52 -13 -4 -45 32 -45 52 0 5 -35 45 -77 90 -62 65 -92 88 -147 113 -60 27 -71 29 -83 16 -26 -25 0 -52 73 -76 67 -22 118 -54 164 -101 42 -44 80 -91 80 -100 0 -17 -41 -22 -58 -7 -29 26 -142 57 -205 57 -74 0 -135 -18 -149 -43 -19 -37 6 -44 75 -20 64 23 160 31 212 19 31 -8 72 -33 64 -40 -2 -2 -34 -22 -71 -44 -71 -43 -70 -42 -137 -99 -41 -36 -121 -132 -166 -198 -88 -131 -136 -283 -138 -440 -1 -60 2 -135 6 -165 17 -121 70 -263 133 -357 l41 -61 -59 -62 c-57 -60 -95 -120 -104 -164 -19 -89 -24 -131 -19 -154 3 -15 7 -36 9 -47 2 -11 7 -31 11 -45 4 -17 0 -32 -12 -45 -85 -96 -149 -212 -189 -340 -27 -85 -28 -100 -29 -280 0 -198 10 -260 65 -419 20 -58 84 -182 107 -209 24 -26 12 -29 -38 -11 -71 26 -220 24 -294 -4 -138 -53 -242 -207 -247 -368 -4 -127 16 -214 80 -339 57 -113 140 -185 272 -239 101 -41 155 -49 311 -43 182 6 263 31 394 120 83 57 185 178 185 221 0 20 21 30 101 50 l67 16 53 -27 c45 -24 65 -28 129 -27 79 0 114 12 161 56 15 14 32 35 39 47 l12 23 26 -24 c65 -59 166 -94 240 -84 51 7 127 47 141 75 7 12 27 21 63 25 55 8 101 30 134 67 10 12 38 30 60 39 45 20 88 69 99 113 5 17 14 27 25 27 36 0 108 39 136 74 l28 35 35 -31 c50 -44 97 -61 171 -62 87 -1 149 15 207 52 106 68 182 174 204 286 10 50 15 56 42 62 37 8 110 74 143 129 47 81 76 199 76 315 1 296 -166 458 -321 311 -47 -44 -101 -72 -126 -65 -13 3 -30 26 -44 56 -29 63 -78 109 -147 139 -45 19 -52 25 -44 40 16 28 11 90 -9 136 -15 32 -17 50 -11 80 5 21 7 48 5 61 -3 12 -7 33 -10 47 -3 14 -22 44 -43 67 -35 39 -37 43 -34 103 3 43 -1 72 -12 93 -20 38 -80 89 -124 103 -25 8 -32 15 -27 28 74 184 89 341 53 531 -12 67 -47 182 -59 195 -5 5 -9 15 -9 23 0 8 -25 64 -55 125 -30 60 -55 116 -55 123 0 12 29 21 85 25 39 4 125 -14 136 -27 6 -8 17 -14 24 -14 7 0 32 -16 55 -35 45 -38 67 -41 62 -9 -5 25 -19 41 -51 57 -14 7 -35 18 -46 24 -52 28 -75 32 -145 30 -45 -2 -88 -9 -107 -19 -18 -9 -33 -13 -33 -8 0 14 24 28 84 50 71 27 188 24 249 -6 32 -15 40 -16 47 -4 13 22 -6 47 -47 61 -39 12 -175 7 -196 -8 -7 -5 -30 -15 -52 -22 -22 -8 -53 -23 -68 -33 -45 -32 -42 -14 5 27 75 64 132 87 230 93 49 3 88 8 88 12 0 15 -38 40 -61 40 -81 -1 -189 -53 -262 -126 l-45 -46 -30 33 -30 33 64 32 c144 71 224 162 225 257 1 68 -22 109 -91 157 -36 26 -116 58 -160 65 -126 21 -293 12 -327 -17 -10 -8 -13 -6 -13 8 0 11 -9 43 -18 73 -22 65 -77 123 -134 140 -45 14 -164 22 -213 15z m130 -23 c6 -1 -19 -13 -53 -26 -35 -14 -77 -35 -92 -47 -16 -13 -47 -36 -70 -53 -64 -46 -201 -198 -238 -263 -30 -53 -50 -99 -56 -125 l-7 -28 27 18 c37 24 52 25 64 3 11 -21 5 -46 -21 -75 -58 -67 -107 -202 -115 -325 -3 -47 -8 -87 -9 -89 -2 -1 -19 9 -38 23 -48 37 -135 54 -184 37 -80 -27 -104 -43 -142 -97 -39 -55 -40 -56 -37 -135 3 -87 17 -116 72 -154 16 -11 29 -29 29 -39 0 -26 30 -44 52 -30 9 6 19 17 22 25 4 12 2 12 -12 0 -17 -14 -47 -9 -47 8 0 5 10 11 22 13 12 2 23 9 26 17 3 8 0 11 -5 8 -15 -9 -81 14 -99 35 -30 32 -45 114 -32 167 24 97 98 153 204 154 48 1 70 -5 105 -25 54 -32 79 -61 79 -91 0 -38 47 -166 79 -216 43 -66 87 -105 161 -143 61 -31 72 -33 165 -33 55 0 109 3 121 8 17 6 23 1 40 -35 15 -34 30 -48 72 -69 l53 -26 -34 -22 c-19 -11 -54 -24 -78 -27 -36 -5 -48 -2 -69 15 -38 34 -110 63 -172 68 -68 6 -134 -21 -185 -75 l-31 -34 -36 17 c-47 22 -101 85 -134 155 -24 49 -27 66 -26 156 1 99 1 101 -17 83 -36 -36 -56 -14 -32 34 15 30 7 36 -13 10 -20 -26 -17 -71 5 -82 10 -6 22 -7 26 -3 4 4 5 -11 2 -34 -19 -122 96 -328 195 -350 16 -3 28 -9 28 -14 0 -4 9 -6 20 -3 25 7 25 -2 0 -36 -81 -114 -20 -307 108 -341 23 -6 42 -12 42 -14 0 -2 -7 -16 -15 -33 -8 -17 -18 -58 -21 -92 -4 -33 -9 -61 -11 -61 -3 0 -24 14 -47 32 -22 17 -42 33 -44 34 -2 1 1 12 7 23 9 16 8 28 -4 50 -8 16 -20 33 -26 37 -8 4 -7 0 1 -15 6 -12 10 -34 8 -49 l-3 -27 -32 34 c-18 19 -33 31 -33 27 0 -45 162 -190 300 -269 86 -49 195 -99 226 -104 27 -5 34 -2 34 11 0 54 64 114 128 121 26 2 56 16 88 40 46 35 51 37 109 33 75 -6 131 -39 179 -105 57 -78 55 -154 -4 -208 -34 -31 -143 -26 -198 9 -45 28 -56 22 -19 -11 41 -37 70 -46 162 -48 80 -1 95 -4 135 -30 25 -15 55 -40 68 -54 44 -51 49 -129 10 -184 -26 -36 -127 -87 -174 -87 -42 0 -141 27 -149 41 -4 5 -13 9 -21 9 -21 0 -8 -17 26 -35 79 -41 152 -46 243 -19 30 9 22 -56 -14 -105 -75 -104 -224 -118 -372 -35 -16 9 -31 14 -34 11 -7 -8 87 -65 120 -72 15 -4 27 -10 27 -15 0 -13 -85 -23 -127 -15 -99 18 -220 120 -313 263 -52 80 -58 85 -154 139 -209 118 -433 311 -526 457 -46 71 -67 75 -31 5 12 -22 21 -44 21 -50 0 -14 -39 -1 -64 20 -19 16 -19 15 -1 -11 17 -28 30 -33 73 -29 12 1 22 -3 22 -8 0 -14 174 -189 225 -226 81 -60 83 -68 16 -59 -128 17 -277 -59 -363 -186 l-17 -25 0 42 c-1 23 -5 44 -10 48 -14 8 -23 -67 -19 -150 3 -73 3 -73 36 5 13 31 15 33 22 15 6 -15 9 -16 9 -4 1 9 10 24 21 34 23 21 25 11 5 -25 -27 -47 -15 -55 21 -15 l36 40 -27 -47 c-31 -55 -26 -61 16 -18 17 16 55 46 85 66 52 35 61 54 25 54 -9 0 -26 -7 -37 -15 -25 -19 -40 -19 -25 -1 7 8 39 27 71 42 63 29 70 50 14 41 -20 -3 -32 -2 -29 3 7 12 72 30 108 30 15 0 27 5 27 10 0 6 -7 10 -15 10 -8 0 -15 5 -15 11 0 6 14 9 33 7 19 -2 31 -8 30 -15 -2 -7 9 -15 25 -19 84 -18 111 -47 37 -40 -52 4 -58 -5 -15 -21 37 -14 40 -43 5 -43 -30 0 -33 -16 -5 -23 24 -6 27 -42 3 -55 -15 -9 -14 -10 3 -16 24 -7 29 -56 6 -56 -11 0 -4 -10 18 -30 l35 -29 -27 -1 c-38 0 -35 -12 11 -40 21 -14 51 -45 67 -70 30 -48 74 -95 112 -120 17 -11 27 -30 33 -65 5 -27 16 -56 25 -65 14 -14 15 -11 11 25 -3 22 -8 48 -12 58 -5 13 -3 16 8 11 8 -3 18 -24 22 -49 9 -61 25 -67 25 -10 0 33 4 45 13 42 6 -2 12 -16 12 -31 -1 -31 19 -29 23 2 2 12 10 22 18 22 26 0 5 -41 -38 -79 -21 -18 -36 -36 -33 -39 3 -3 15 4 28 15 31 28 87 47 87 29 0 -8 -7 -19 -15 -26 -9 -7 -26 -27 -37 -43 -18 -25 -11 -22 43 20 109 85 138 96 244 91 78 -4 98 -9 146 -37 107 -60 187 -159 215 -265 18 -67 17 -105 -2 -152 -34 -83 -75 -101 -67 -29 13 113 -65 247 -177 305 -14 8 2 -13 36 -46 68 -66 115 -153 121 -224 4 -37 -1 -53 -26 -92 -30 -47 -96 -98 -126 -98 -9 0 -25 -5 -35 -10 -18 -10 -19 -7 -13 54 6 72 -2 102 -49 177 -28 45 -102 108 -114 96 -3 -3 15 -24 40 -47 125 -116 128 -296 6 -357 -25 -13 -63 -23 -87 -23 -60 0 -147 37 -203 87 l-47 42 -17 -40 c-13 -29 -32 -47 -69 -69 -88 -50 -154 -50 -262 0 -33 15 -50 17 -93 10 -29 -5 -61 -12 -72 -15 -21 -7 -28 9 -29 70 -2 121 -154 290 -278 310 -23 4 -41 10 -40 15 3 11 -96 159 -104 155 -3 -2 -4 -19 -1 -37 5 -37 5 -37 -37 16 l-31 39 0 -28 c0 -15 9 -43 21 -61 11 -19 18 -34 15 -34 -12 0 -59 58 -88 108 -20 36 -34 50 -40 44 -7 -7 -5 -21 6 -43 19 -38 20 -42 5 -33 -6 3 -21 28 -33 55 -16 32 -26 45 -33 38 -7 -7 -16 -1 -27 16 -20 31 -14 44 10 24 13 -11 12 -5 -5 31 -12 25 -26 53 -32 63 -6 11 -8 21 -6 23 3 3 16 -15 31 -39 22 -38 56 -69 56 -51 0 3 -20 47 -43 97 -24 51 -50 110 -57 132 -19 60 -24 64 -31 20 -5 -38 -6 -38 -12 -13 -4 16 -10 40 -13 55 l-6 28 -12 -23 c-12 -22 -13 -20 -23 32 -10 59 -4 72 16 33 10 -20 11 -18 7 16 -3 22 -1 35 5 32 5 -4 9 -15 9 -25 0 -10 4 -21 9 -24 5 -3 7 32 4 82 -6 102 11 105 21 3 8 -90 26 -103 26 -20 0 37 3 101 7 144 5 64 4 77 -8 73 -8 -3 -19 -27 -26 -54 -11 -47 -11 -45 -6 34 4 61 3 82 -6 82 -7 0 -15 -9 -18 -20 -3 -11 -9 -17 -14 -15 -4 3 -4 17 1 31 6 14 10 32 10 41 0 14 -3 14 -20 -2 -25 -23 -26 -10 -3 64 l18 56 5 -40 6 -40 18 60 c20 67 60 150 77 160 10 7 -4 -27 -36 -85 -7 -14 -16 -43 -20 -65 -4 -22 -9 -49 -11 -60 -3 -11 16 21 42 70 44 86 110 186 126 193 15 7 8 22 -9 22 -9 0 -32 -14 -50 -32 -56 -54 -36 -14 22 46 30 30 55 58 55 61 0 3 -9 5 -20 5 -16 0 -19 4 -12 18 5 9 7 23 4 31 -3 9 0 11 8 6 10 -6 12 1 6 34 -8 54 3 166 19 188 11 15 12 10 5 -27 -11 -53 -12 -145 -4 -178 12 -43 24 -22 24 42 0 34 4 76 9 92 5 16 15 49 22 74 7 25 23 62 36 82 13 21 23 40 23 43 0 14 -25 2 -51 -24 -39 -39 -37 -29 6 29 38 52 43 65 20 56 -20 -7 -19 -3 4 18 17 15 20 15 34 1 65 -65 196 -137 282 -155 57 -13 178 -16 217 -5 19 5 29 2 36 -11 7 -12 15 -15 28 -9 11 5 22 8 26 7 4 -1 13 8 19 20 12 22 12 22 -16 4 -18 -12 -30 -15 -37 -8 -7 7 -1 16 16 27 24 16 39 44 16 30 -6 -4 -38 -8 -73 -11 -61 -4 -61 -3 -29 11 29 13 44 27 25 24 -5 -1 -15 -1 -23 0 -12 1 -11 5 4 16 15 11 16 15 5 16 -8 0 -23 2 -34 4 -11 2 -36 5 -55 7 -29 2 -34 0 -32 -14 3 -21 -22 -24 -62 -8 -32 12 -34 -2 -4 -30 26 -24 15 -25 -42 -5 -52 18 -50 19 -50 -2 0 -13 -3 -14 -12 -5 -7 7 -20 12 -31 12 -10 0 -16 4 -12 10 3 5 12 7 20 3 8 -3 15 0 15 6 0 6 -6 11 -12 11 -7 0 -26 11 -43 25 l-30 25 37 -15 c43 -17 48 -18 48 -7 0 4 -18 18 -40 32 -22 14 -40 28 -40 32 0 11 7 10 41 -8 51 -26 45 -7 -16 55 -32 32 -67 73 -77 90 -20 32 -48 42 -48 17 0 -7 10 -28 23 -47 13 -19 26 -41 31 -49 10 -20 -52 46 -85 90 -32 42 -43 28 -18 -24 10 -22 19 -41 19 -43 0 -12 -24 14 -46 48 -13 21 -31 39 -38 39 -15 0 -32 37 -22 47 3 4 6 1 6 -5 0 -7 4 -12 9 -12 5 0 1 29 -9 65 -10 36 -15 63 -10 60 5 -3 11 -19 15 -35 6 -27 21 -47 30 -39 2 2 -3 42 -11 89 -8 47 -15 129 -15 182 -1 130 -19 144 -39 32 -8 -41 -9 -34 -6 44 3 90 -3 110 -23 75 -15 -25 -14 1 1 52 10 37 12 38 18 15 5 -21 10 -13 29 47 13 40 29 77 36 83 9 8 7 -8 -6 -49 -11 -38 -15 -69 -11 -82 7 -18 10 -16 26 23 46 110 100 207 137 246 23 24 39 45 37 48 -11 10 -56 -16 -86 -50 -17 -20 -33 -32 -36 -28 -3 5 24 36 59 70 63 60 65 78 5 47 -17 -9 -30 -13 -30 -10 0 11 93 105 98 100 3 -2 -1 -11 -8 -20 -19 -23 -5 -30 17 -8 80 76 154 126 241 160 65 26 89 46 59 49 -6 1 -16 2 -22 3 -5 1 5 9 23 17 17 9 32 22 32 29 0 18 31 82 64 135 43 67 149 165 227 211 107 62 256 97 344 80z m-37 -143 c-50 -60 -98 -124 -98 -131 0 -3 -16 -31 -35 -63 -50 -83 -43 -93 18 -26 28 32 88 97 131 145 43 48 80 86 82 84 2 -2 -18 -41 -45 -86 -28 -45 -57 -104 -66 -131 -9 -28 -21 -52 -26 -55 -5 -4 -9 -13 -9 -21 0 -13 3 -13 18 2 17 18 106 142 145 203 12 20 23 29 25 22 4 -13 -6 -38 -75 -188 -18 -40 -33 -76 -33 -80 0 -23 113 136 147 207 45 94 9 -59 -39 -166 -38 -86 -30 -94 23 -22 16 23 29 38 29 34 0 -13 -39 -81 -63 -110 l-24 -30 -29 20 c-67 46 -115 59 -214 58 -76 0 -105 -5 -142 -22 -26 -12 -50 -26 -53 -32 -11 -17 -35 -11 -35 10 0 21 -34 45 -50 35 -14 -9 -12 21 3 47 58 102 246 312 264 295 3 -4 -9 -24 -28 -45 -65 -73 -89 -107 -124 -173 -36 -68 -47 -112 -20 -74 14 19 85 97 202 222 45 49 137 121 156 122 5 1 -11 -23 -35 -51z m638 -93 c41 -9 74 -20 74 -24 0 -4 -28 -8 -62 -9 -35 -1 -85 -10 -113 -18 -80 -26 -208 -91 -271 -139 -33 -24 -61 -42 -63 -40 -2 2 5 19 16 37 10 18 27 65 37 103 23 85 30 95 70 96 17 0 39 4 50 8 30 12 182 4 262 -14z m24 -99 c0 -2 -31 -22 -68 -44 -66 -39 -170 -137 -158 -149 3 -4 26 8 50 25 24 18 49 32 54 32 5 0 15 7 22 15 12 14 96 57 104 52 1 -1 9 3 17 9 20 16 49 25 49 15 0 -4 -8 -12 -19 -17 -49 -23 -219 -179 -208 -190 8 -8 39 10 170 98 65 44 121 78 123 75 2 -2 -11 -19 -29 -38 -30 -30 -57 -55 -181 -161 -17 -14 -28 -29 -25 -32 7 -7 125 49 164 78 45 33 55 38 55 26 0 -14 -180 -130 -202 -130 -9 0 -20 -4 -23 -10 -3 -5 -30 13 -58 41 -65 65 -161 112 -240 117 l-58 4 43 37 c74 63 212 145 232 138 6 -3 0 -9 -14 -15 -14 -5 -54 -37 -90 -71 l-65 -62 55 33 c83 49 116 65 210 98 94 33 90 32 90 26z m-450 -46 c0 -5 -5 -10 -11 -10 -5 0 -7 5 -4 10 3 6 8 10 11 10 2 0 4 -4 4 -10z m-196 -158 c34 -16 79 -46 101 -68 43 -41 95 -115 95 -135 0 -6 6 -23 14 -37 18 -34 41 -140 33 -148 -4 -4 -14 -1 -23 6 -20 18 -223 19 -279 3 -22 -6 -69 -19 -105 -29 -119 -32 -238 -93 -306 -156 l-32 -30 -7 85 c-16 202 35 374 140 466 92 81 249 99 369 43z m351 -43 c28 -12 52 -26 55 -29 3 -3 22 -19 42 -34 37 -28 100 -113 111 -151 3 -11 12 -38 21 -60 23 -63 35 -215 25 -317 -4 -45 -11 -47 -34 -10 -53 80 -246 239 -278 227 -8 -4 -14 5 -15 27 -7 87 -44 186 -104 277 -27 40 -48 75 -46 77 31 30 151 27 223 -7z m265 -241 c0 -6 -7 -5 -15 2 -8 7 -15 17 -15 22 0 6 7 5 15 -2 8 -7 15 -17 15 -22z m10 -62 c0 -7 13 -39 28 -70 33 -63 25 -75 -12 -18 -26 40 -41 102 -26 102 6 0 10 -6 10 -14z m-1740 -40 c0 -3 -4 -8 -10 -11 -5 -3 -10 -1 -10 4 0 6 5 11 10 11 6 0 10 -2 10 -4z m1336 -28 c31 -11 34 -15 34 -53 -1 -147 -90 -328 -199 -399 -72 -48 -119 -60 -214 -52 -64 4 -89 12 -140 40 -35 20 -72 46 -84 58 -31 34 -75 107 -94 157 l-17 45 44 36 c25 20 61 46 82 57 20 11 46 25 57 31 41 23 93 42 180 65 105 28 292 37 351 15z m105 -47 c13 -10 29 -20 36 -22 25 -8 147 -125 185 -177 39 -53 40 -56 28 -92 -26 -79 -53 -115 -88 -118 -27 -3 -32 -7 -27 -23 6 -17 1 -19 -48 -19 -31 0 -57 4 -59 8 -1 5 -22 22 -44 39 -32 22 -55 30 -95 32 -68 3 -72 6 -46 35 32 35 94 164 103 216 4 25 9 48 10 53 1 4 2 25 3 47 1 45 8 48 42 21z m319 -25 c0 -7 7 -27 15 -42 24 -47 17 -62 -10 -22 -25 38 -33 78 -15 78 6 0 10 -6 10 -14z m6 -133 c4 -16 11 -34 17 -41 12 -15 10 -17 -20 -26 -22 -7 -23 -5 -23 43 0 55 15 68 26 24z m53 -28 c13 -53 36 -52 28 1 -3 19 -3 34 1 34 9 0 44 -111 38 -117 -3 -3 -17 4 -32 16 -15 11 -33 21 -40 21 -9 0 -14 12 -14 34 0 19 -3 42 -7 52 -4 11 -3 15 4 11 6 -4 16 -27 22 -52z m38 -101 c90 -68 119 -228 52 -295 -28 -28 -42 -24 -72 22 -26 39 -26 42 -10 55 14 10 16 17 7 30 -17 28 -32 28 -27 -1 6 -26 -10 -34 -24 -12 -8 12 -43 34 -93 59 -14 7 -27 13 -29 14 -2 2 6 15 17 31 10 15 25 45 31 65 24 72 78 84 148 32z m83 -27 c0 -24 -3 -28 -10 -17 -13 20 -13 63 0 55 6 -3 10 -21 10 -38z m-579 -89 c46 -15 89 -46 89 -64 0 -8 -4 -14 -10 -14 -15 0 -49 -32 -70 -66 -19 -29 -21 -30 -72 -24 -55 6 -113 33 -131 61 -29 46 43 119 119 119 22 0 56 -5 75 -12z m312 -53 c29 -13 71 -40 93 -59 90 -77 145 -260 94 -314 -12 -12 -35 -25 -50 -29 -45 -8 -97 -61 -114 -115 -14 -44 -14 -51 1 -85 10 -21 26 -48 36 -60 17 -20 18 -23 3 -46 -22 -32 -27 -103 -11 -141 8 -17 27 -44 44 -60 25 -24 28 -32 20 -48 -13 -25 -3 -103 18 -139 34 -56 151 -82 220 -47 17 9 45 14 62 12 17 -2 43 -6 59 -7 58 -8 150 -74 178 -129 37 -72 36 -213 -4 -296 -16 -34 -22 -38 -79 -48 -65 -12 -75 -10 -67 10 6 15 -23 41 -56 51 -23 6 -22 4 8 -20 50 -41 41 -55 -20 -30 -34 14 -18 -13 17 -29 29 -14 53 -16 132 -10 168 11 246 -28 304 -152 30 -65 32 -223 3 -305 -64 -184 -185 -285 -355 -296 -66 -5 -85 -2 -124 16 -90 42 -133 102 -181 247 -40 123 -54 152 -83 178 -34 31 -35 12 -1 -36 17 -24 32 -56 33 -72 2 -24 -4 -32 -35 -48 -21 -11 -56 -22 -79 -24 -39 -5 -46 -2 -88 38 -25 24 -60 53 -77 65 -37 26 -125 53 -170 53 -26 0 -39 8 -60 36 l-28 36 19 34 c18 33 19 34 69 28 38 -5 66 -1 111 15 32 12 72 21 87 21 36 0 125 36 166 66 38 30 62 81 62 136 0 31 6 44 29 64 63 52 79 148 39 224 -23 43 -77 87 -136 112 l-32 13 25 38 c31 45 30 102 -5 170 -80 154 -262 206 -361 103 -19 -20 -34 -26 -68 -26 -35 0 -51 -6 -72 -26 l-28 -27 -50 22 c-55 23 -118 27 -165 10 -28 -10 -37 -8 -94 27 l-62 39 6 60 c12 115 93 280 167 341 18 14 39 31 47 38 9 7 25 16 35 20 19 7 18 8 -6 21 -20 11 -35 12 -60 5 -73 -21 -35 19 43 44 26 9 58 16 72 16 51 0 26 31 -41 51 -24 6 -43 15 -43 19 0 12 110 21 165 14 85 -10 108 -25 128 -84 10 -28 20 -50 22 -48 2 2 -3 37 -11 78 -8 41 -12 91 -8 110 22 128 149 192 248 125 29 -20 36 -21 36 -8 0 8 -9 31 -21 49 -11 19 -18 34 -14 34 3 0 30 -11 58 -25z m-708 -154 c22 -4 60 -20 85 -36 l45 -28 -43 -15 c-62 -20 -57 -30 26 -47 17 -4 32 -10 32 -15 0 -18 -56 -15 -82 4 -33 23 -109 27 -154 8 -45 -19 -78 -86 -70 -143 7 -50 46 -115 76 -124 23 -7 24 -14 8 -50 -7 -16 -17 -24 -26 -20 -7 3 -17 5 -21 5 -5 0 -25 13 -46 30 -56 45 -75 87 -75 172 0 61 4 79 30 125 17 29 30 55 30 58 0 3 -10 5 -22 5 -22 0 -22 0 3 26 46 46 118 62 204 45z m383 -2 c-2 -6 -8 -10 -13 -10 -5 0 -11 4 -13 10 -2 6 4 11 13 11 9 0 15 -5 13 -11z m-25 -36 l18 -36 -23 7 c-13 4 -35 9 -51 13 l-27 6 27 23 c16 13 30 24 33 24 3 0 13 -17 23 -37z m607 27 c0 -18 -30 -83 -35 -78 -3 3 -1 18 5 33 9 23 8 26 -5 21 -9 -3 -15 0 -15 8 0 14 14 24 38 25 6 1 12 -4 12 -9z m-933 -136 c18 -8 33 -17 33 -20 0 -3 -13 -17 -30 -31 -43 -36 -39 -52 10 -46 26 4 40 2 40 -6 0 -6 -4 -11 -10 -11 -11 0 -85 -74 -107 -107 -20 -30 -26 -29 -67 11 -62 62 -55 163 14 205 37 22 71 24 117 5z m923 -134 c83 -23 156 -143 121 -198 -7 -11 -16 -11 -55 2 -63 22 -124 20 -169 -4 -28 -15 -42 -18 -57 -10 -21 11 -50 64 -50 92 0 39 50 106 90 121 25 9 83 8 120 -3z m-1966 -155 c-4 -8 -10 -15 -15 -15 -4 0 -6 7 -3 15 4 8 10 15 15 15 4 0 6 -7 3 -15z m2041 -73 c96 -48 159 -144 135 -208 l-9 -24 -37 25 c-20 13 -52 27 -71 31 -48 9 -129 -11 -170 -42 -30 -23 -34 -24 -56 -9 -49 31 -62 115 -28 171 39 64 161 93 236 56z m46 -216 c40 -17 82 -52 98 -83 15 -29 14 -118 -1 -131 -7 -5 -38 -13 -68 -16 -30 -3 -79 -8 -108 -12 -93 -11 -152 32 -152 110 0 104 127 176 231 132z m-903 -83 c13 -8 21 -20 19 -26 -7 -23 -62 -18 -112 10 -47 26 -48 28 -25 34 34 8 90 0 118 -18z m1558 -282 c66 -40 111 -133 134 -275 27 -173 -67 -410 -187 -470 l-33 -17 0 69 c0 86 -21 159 -63 214 -34 45 -97 93 -134 102 -12 4 -34 11 -49 16 -24 10 -25 12 -12 33 16 25 37 113 41 172 1 22 5 39 9 38 21 -6 98 33 133 67 36 35 94 69 120 70 6 0 24 -9 41 -19z m-1773 -194 c81 -45 101 -61 119 -96 49 -92 174 -225 254 -270 16 -9 31 -17 33 -19 11 -6 -58 -65 -103 -87 -71 -36 -174 -35 -241 1 -62 32 -104 68 -130 108 -39 62 -44 71 -55 96 -6 14 -15 34 -20 45 -18 39 -23 71 -22 125 2 77 29 137 68 150 0 0 44 -24 97 -53z m407 -531 c0 -1 -19 -8 -42 -15 -24 -7 -53 -19 -66 -28 -30 -19 -52 -10 -52 21 0 20 11 29 63 53 l62 30 18 -29 c9 -16 17 -30 17 -32z m555 -168 c4 -18 22 -66 42 -106 33 -70 34 -74 17 -93 -19 -21 -114 -69 -137 -69 -10 0 -16 18 -20 63 -4 42 -16 81 -36 119 l-31 58 40 6 c21 4 54 17 72 30 43 30 45 30 53 -8z m-2210 -48 c-3 -5 4 -11 14 -15 12 -4 18 -12 14 -21 -3 -7 0 -14 6 -14 6 0 11 -7 11 -15 0 -7 8 -19 18 -24 14 -9 14 -12 3 -20 -10 -7 -8 -12 10 -25 30 -20 45 -21 28 0 -11 13 -9 14 14 9 23 -6 26 -4 21 9 -5 14 -2 16 20 10 21 -5 25 -3 20 10 -11 30 29 17 75 -25 24 -21 42 -41 40 -42 -2 -2 -31 -8 -63 -15 -62 -12 -147 -51 -182 -83 -25 -23 -31 -23 -50 -4 -22 22 -78 19 -105 -6 l-24 -21 25 7 c108 30 127 8 54 -66 -26 -27 -43 -49 -37 -49 6 0 16 7 23 15 15 18 34 20 24 3 -4 -7 2 -5 13 5 29 25 38 21 18 -9 -19 -30 -15 -42 8 -19 27 26 32 16 6 -11 -13 -15 -17 -24 -9 -21 8 3 32 11 53 18 41 13 50 39 15 39 -18 0 -12 6 21 23 51 26 64 47 30 47 -28 0 -18 11 23 25 34 11 50 35 24 35 -36 0 -12 18 47 35 127 36 177 36 258 -2 63 -29 87 -52 119 -115 21 -44 6 -43 -23 1 -42 64 -108 103 -182 109 -69 5 -119 -3 -110 -18 3 -6 24 -10 46 -10 49 0 129 -19 129 -31 0 -5 6 -9 13 -9 8 0 24 -12 38 -26 l24 -26 -25 7 c-14 4 -32 14 -41 21 -23 20 -176 19 -217 -2 -18 -8 -32 -17 -32 -19 0 -2 45 -4 100 -4 62 0 109 -5 123 -13 19 -11 11 -13 -68 -19 -66 -5 -105 -14 -145 -33 -50 -23 -52 -25 -20 -21 94 13 250 17 250 6 0 -6 -12 -11 -27 -11 -65 -1 -221 -53 -238 -80 -8 -13 26 -13 62 1 15 6 48 13 73 15 25 3 67 9 93 15 107 21 135 2 35 -24 -35 -9 -83 -21 -108 -27 -45 -12 -83 -26 -130 -49 -23 -10 -22 -11 15 -6 98 13 234 35 248 40 8 4 18 2 21 -3 6 -11 -2 -14 -169 -72 -60 -22 -111 -42 -112 -47 -10 -28 210 16 288 58 30 16 23 -7 -10 -30 -31 -23 -158 -83 -205 -98 -17 -5 -32 -15 -34 -22 -4 -11 6 -12 43 -7 92 14 209 60 252 99 36 32 35 16 0 -25 -33 -37 -119 -95 -174 -117 -48 -20 -41 -35 12 -28 40 6 60 13 105 39 8 4 24 12 35 17 11 5 33 21 49 35 47 44 43 19 -5 -30 -24 -24 -61 -52 -81 -62 -46 -21 -61 -48 -22 -38 56 14 10 -13 -58 -35 -64 -20 -94 -23 -238 -23 -169 0 -191 4 -310 58 -87 39 -159 114 -186 192 -11 32 -3 49 10 22 3 -7 4 0 1 15 -4 19 -2 26 5 22 13 -8 13 35 0 55 -5 8 -15 15 -21 15 -7 0 -14 11 -16 24 -2 13 -8 31 -13 40 -9 15 -9 14 -10 -1 0 -33 -19 -18 -25 20 -4 20 -11 47 -17 59 -9 17 -8 33 3 65 12 38 14 39 19 17 6 -23 7 -23 20 11 l14 35 4 -30 4 -30 20 44 c21 46 17 67 -7 35 -22 -30 -19 4 5 49 11 20 20 39 20 43 0 3 -9 2 -20 -1 -26 -8 -25 -1 5 40 14 18 25 37 24 41 -4 22 2 33 19 32 9 0 25 3 35 7 19 8 24 -10 5 -19 -7 -4 4 -4 25 -2 33 4 37 3 27 -9 -10 -12 -9 -15 3 -15 10 0 14 -6 11 -15 -5 -12 2 -15 30 -15 27 0 34 3 30 15 -4 11 0 15 16 15 29 0 21 23 -11 30 -16 4 -20 8 -11 14 7 4 20 5 30 2 21 -7 54 13 35 21 -7 2 -13 9 -13 14 0 6 6 9 13 8 27 -3 39 2 34 15 -4 10 0 12 14 9 10 -3 17 -9 14 -13z m463 -156 c2 -1 -1 -5 -7 -8 -11 -7 -41 20 -41 36 0 6 10 3 23 -8 12 -10 23 -20 25 -20z m132 -84 c7 -13 7 -20 1 -20 -6 0 -15 9 -21 20 -7 13 -7 20 -1 20 6 0 15 -9 21 -20z m90 -103 c0 -31 -3 -38 -10 -27 -13 20 -13 83 0 75 6 -3 10 -25 10 -48z m37 -29 c-3 -8 -6 -5 -6 6 -1 11 2 17 5 13 3 -3 4 -12 1 -19z m48 -118 c3 -5 1 -10 -4 -10 -6 0 -11 5 -11 10 0 6 2 10 4 10 3 0 8 -4 11 -10z m-1 -89 c-7 -7 -34 28 -34 43 1 6 10 0 21 -13 11 -13 17 -27 13 -30z m-34 -72 c0 -11 -4 -17 -10 -14 -5 3 -10 13 -10 21 0 8 5 14 10 14 6 0 10 -9 10 -21z m-66 -86 c-9 -18 -21 -33 -26 -33 -5 0 -2 10 6 23 8 12 18 38 22 57 7 31 9 32 12 10 2 -14 -4 -39 -14 -57z" fill="#e0e0e6"/>
<path d="M1513 4270 c-71 -35 -173 -126 -173 -154 0 -15 6 -13 38 13 64 54 145 105 197 126 27 11 49 25 48 30 -5 21 -51 15 -110 -15z" fill="#e0e0e6"/>
<path d="M1517 4210 c-48 -24 -156 -132 -138 -138 7 -2 22 5 34 15 24 22 114 79 161 103 16 8 29 20 28 25 -3 18 -46 15 -85 -5z" fill="#e0e0e6"/>
<path d="M1519 4144 c-29 -15 -103 -93 -96 -100 3 -3 30 11 62 31 31 20 72 43 91 51 19 8 32 19 29 24 -9 14 -55 11 -86 -6z" fill="#e0e0e6"/>
<path d="M1532 4073 c-37 -24 -61 -57 -50 -68 6 -7 131 70 136 83 7 22 -42 13 -86 -15z" fill="#e0e0e6"/>
<path d="M1570 4028 c-42 -29 -53 -53 -19 -43 36 12 82 40 87 53 6 20 -33 14 -68 -10z" fill="#e0e0e6"/>
<path d="M1604 3978 c-18 -20 -18 -21 -1 -15 10 4 23 7 28 7 5 0 9 7 9 15 0 21 -14 19 -36 -7z" fill="#e0e0e6"/>
<path d="M1236 3926 c-48 -52 -95 -159 -86 -196 5 -22 9 -18 38 40 17 36 50 92 72 125 22 33 40 63 40 68 0 19 -27 3 -64 -37z" fill="#e0e0e6"/>
<path d="M1265 3853 c-42 -45 -61 -91 -56 -138 1 -8 111 152 111 162 0 13 -34 -2 -55 -24z" fill="#e0e0e6"/>
<path d="M1323 3831 c-25 -21 -64 -91 -57 -102 3 -5 25 17 50 47 45 55 50 89 7 55z" fill="#e0e0e6"/>
<path d="M1500 3801 c0 -5 7 -14 15 -21 13 -10 15 -9 15 9 0 12 -6 21 -15 21 -8 0 -15 -4 -15 -9z" fill="#e0e0e6"/>
<path d="M1385 3730 c-9 -15 4 -30 20 -23 8 3 15 9 15 13 0 12 -29 20 -35 10z" fill="#e0e0e6"/>
<path d="M1402 3578 c6 -18 25 -20 31 -3 5 10 0 15 -14 15 -12 0 -19 -5 -17 -12z" fill="#e0e0e6"/>
<path d="M1121 3513 c-6 -21 -11 -49 -11 -62 0 -38 31 -144 47 -161 13 -13 14 -10 9 30 -3 25 -9 87 -12 138 -4 50 -10 92 -15 92 -4 0 -13 -17 -18 -37z" fill="#e0e0e6"/>
<path d="M1184 3499 c-20 -33 1 -207 23 -186 3 3 5 44 5 92 1 84 -11 122 -28 94z" fill="#e0e0e6"/>
<path d="M1239 3453 c-12 -31 -3 -113 12 -113 9 0 13 26 9 69 -1 14 2 21 9 17 6 -4 11 -19 11 -34 0 -36 17 -16 25 31 7 38 -1 47 -23 25 -9 -9 -12 -7 -12 10 0 31 -18 27 -31 -5z" fill="#e0e0e6"/>
<path d="M1330 3436 c0 -8 -3 -23 -6 -33 -5 -16 -4 -16 10 1 18 22 21 46 6 46 -5 0 -10 -6 -10 -14z" fill="#e0e0e6"/>
<path d="M1345 3158 c14 -45 75 -111 90 -97 8 8 -69 119 -82 119 -10 0 -12 -7 -8 -22z" fill="#e0e0e6"/>
<path d="M1397 3161 c3 -11 14 -28 25 -38 20 -18 20 -18 6 16 -15 38 -40 55 -31 22z" fill="#e0e0e6"/>
<path d="M1295 3159 c-13 -20 5 -57 50 -98 53 -49 90 -58 55 -13 -11 15 -37 48 -56 75 -39 51 -40 52 -49 36z" fill="#e0e0e6"/>
<path d="M1645 2940 c3 -5 18 -10 33 -9 24 0 25 1 7 9 -28 12 -47 12 -40 0z" fill="#e0e0e6"/>
<path d="M1189 2788 c-49 -45 -92 -204 -71 -258 12 -29 13 -27 37 80 9 41 28 97 41 124 32 64 29 87 -7 54z" fill="#e0e0e6"/>
<path d="M1204 2682 c-30 -53 -49 -147 -35 -171 5 -8 17 15 31 61 13 40 29 82 37 93 7 11 13 27 13 37 0 30 -24 20 -46 -20z" fill="#e0e0e6"/>
<path d="M1254 2645 c-23 -36 -43 -95 -43 -130 l0 -30 19 24 c11 13 20 28 20 35 0 6 11 34 25 61 13 28 25 53 25 58 0 17 -31 5 -46 -18z" fill="#e0e0e6"/>
<path d="M1316 2623 c-13 -13 -37 -76 -41 -105 -6 -45 13 -32 41 27 15 31 31 58 35 61 5 3 7 10 4 15 -7 11 -29 12 -39 2z" fill="#e0e0e6"/>
<path d="M1354 2554 c-24 -57 -13 -72 19 -24 31 48 33 60 11 60 -8 0 -22 -16 -30 -36z" fill="#e0e0e6"/>
<path d="M1396 2534 c-10 -27 -7 -36 9 -20 8 8 15 19 15 25 0 17 -17 13 -24 -5z" fill="#e0e0e6"/>
<path d="M1021 2290 c-21 -22 -50 -64 -64 -92 -25 -52 -44 -118 -34 -118 3 0 26 33 50 74 25 40 59 93 76 116 52 72 34 84 -28 20z" fill="#e0e0e6"/>
<path d="M1072 2263 c-27 -10 -92 -128 -92 -165 0 -29 16 -14 60 60 23 37 48 77 57 90 16 23 7 28 -25 15z" fill="#e0e0e6"/>
<path d="M1092 2200 c-27 -36 -65 -130 -53 -130 13 0 101 127 101 145 0 25 -25 17 -48 -15z" fill="#e0e0e6"/>
<path d="M1136 2159 c-14 -17 -26 -34 -27 -37 -8 -66 -2 -67 40 -10 49 67 38 108 -13 47z" fill="#e0e0e6"/>
<path d="M1175 2115 c-11 -19 -16 -38 -11 -42 9 -10 56 42 56 63 0 26 -27 14 -45 -21z" fill="#e0e0e6"/>
<path d="M1232 2108 c-6 -6 -12 -19 -12 -27 0 -13 2 -13 16 1 9 9 15 21 13 27 -3 9 -8 8 -17 -1z" fill="#e0e0e6"/>
<path d="M947 1892 c-22 -24 -24 -149 -4 -177 12 -16 15 -4 20 86 3 57 4 105 3 107 -2 1 -10 -6 -19 -16z" fill="#e0e0e6"/>
<path d="M1000 1861 c-12 -23 -12 -116 -1 -146 l8 -20 6 20 c13 45 19 165 8 165 -5 0 -15 -9 -21 -19z" fill="#e0e0e6"/>
<path d="M1050 1831 c-12 -24 -13 -91 -1 -109 11 -18 17 -2 26 71 8 59 -4 76 -25 38z" fill="#e0e0e6"/>
<path d="M1100 1811 c-12 -24 -13 -68 -1 -75 7 -5 31 57 31 83 0 18 -18 13 -30 -8z" fill="#e0e0e6"/>
<path d="M1580 1793 c-53 -36 -72 -86 -22 -58 65 37 86 52 90 63 6 18 -40 15 -68 -5z" fill="#e0e0e6"/>
<path d="M1144 1786 c-10 -27 2 -43 14 -19 8 14 9 24 2 28 -6 3 -13 -1 -16 -9z" fill="#e0e0e6"/>
<path d="M1558 1708 c-12 -12 -17 -23 -11 -25 16 -6 83 24 83 36 0 19 -49 12 -72 -11z" fill="#e0e0e6"/>
<path d="M1579 1660 c-14 -11 -18 -19 -11 -20 19 0 52 19 52 30 0 16 -16 12 -41 -10z" fill="#e0e0e6"/>
<path d="M1861 1614 c1 -23 99 -78 99 -56 0 15 -44 50 -72 57 -16 4 -28 3 -27 -1z" fill="#e0e0e6"/>
<path d="M1879 1540 c24 -21 41 -26 41 -12 0 15 -24 32 -44 32 -20 -1 -20 -1 3 -20z" fill="#e0e0e6"/>
<path d="M959 1535 c-4 -65 33 -159 78 -196 14 -12 15 -11 8 11 -4 14 -18 52 -31 84 -13 33 -24 65 -24 71 0 6 -7 20 -15 31 -14 19 -14 19 -16 -1z" fill="#e0e0e6"/>
<path d="M1027 1498 c-8 -28 9 -86 33 -118 29 -38 31 -21 9 55 -24 81 -34 95 -42 63z" fill="#e0e0e6"/>
<path d="M1096 1503 c-13 -13 -5 -59 16 -93 18 -29 23 -32 26 -16 4 20 -17 104 -28 111 -4 2 -10 2 -14 -2z" fill="#e0e0e6"/>
<path d="M1156 1485 c-5 -18 -2 -35 9 -51 22 -34 28 -30 20 14 -10 56 -21 70 -29 37z" fill="#e0e0e6"/>
<path d="M1209 1484 c-6 -25 0 -54 12 -54 11 0 11 27 0 54 -8 20 -8 20 -12 0z" fill="#e0e0e6"/>
<path d="M2084 1398 c3 -13 6 -33 6 -45 0 -26 15 -31 23 -9 7 17 -14 76 -26 76 -5 0 -7 -10 -3 -22z" fill="#e0e0e6"/>
<path d="M2050 1366 c0 -14 5 -26 10 -26 6 0 10 9 10 19 0 11 -4 23 -10 26 -6 4 -10 -5 -10 -19z" fill="#e0e0e6"/>
<path d="M1310 1174 c0 -20 31 -74 43 -74 12 0 1 59 -14 77 -15 18 -29 17 -29 -3z" fill="#e0e0e6"/>
<path d="M1264 1144 c7 -28 52 -81 61 -72 9 9 -39 97 -54 98 -9 0 -11 -7 -7 -26z" fill="#e0e0e6"/>
<path d="M1370 1156 c0 -15 18 -31 26 -23 7 7 -7 37 -17 37 -5 0 -9 -6 -9 -14z" fill="#e0e0e6"/>
<path d="M2950 3531 c0 -6 5 -13 10 -16 6 -3 10 1 10 9 0 9 -4 16 -10 16 -5 0 -10 -4 -10 -9z" fill="#e0e0e6"/>
<path d="M3036 3444 c-8 -20 0 -32 14 -18 5 5 5 15 1 22 -6 11 -10 10 -15 -4z" fill="#e0e0e6"/>
<path d="M3042 3319 c2 -7 10 -15 17 -17 8 -3 12 1 9 9 -2 7 -10 15 -17 17 -8 3 -12 -1 -9 -9z" fill="#e0e0e6"/>
<path d="M2648 3231 c-56 -32 -60 -75 -19 -197 38 -112 44 -118 82 -76 16 18 29 40 29 49 0 9 3 13 7 9 4 -4 6 -27 4 -51 -2 -39 0 -45 17 -45 31 0 81 29 107 64 59 77 12 188 -100 236 -65 28 -94 30 -127 11z m120 -30 c55 -28 102 -82 109 -124 6 -41 -21 -94 -62 -121 -35 -23 -46 -20 -43 12 2 30 -19 92 -32 92 -4 0 -10 -14 -14 -32 -6 -32 -32 -68 -48 -68 -4 0 -8 10 -8 23 0 13 -4 27 -9 33 -11 12 -41 108 -41 132 0 11 9 31 21 46 25 32 73 35 127 7z" fill="#e0e0e6"/>
<path d="M2119 2661 c-19 -15 -24 -31 -27 -84 -4 -57 -1 -68 18 -87 20 -20 23 -20 40 -5 29 26 44 95 31 142 -13 49 -32 59 -62 34z" fill="#e0e0e6"/>
<path d="M2280 2655 c-39 -47 -6 -178 47 -188 21 -4 27 1 39 29 19 46 2 126 -33 154 -31 24 -37 25 -53 5z" fill="#e0e0e6"/>
<path d="M3439 1565 c-83 -43 -157 -143 -185 -252 -18 -71 -18 -117 2 -159 47 -100 153 -98 266 4 54 49 99 147 118 262 8 47 7 60 -11 97 -36 75 -105 92 -190 48z m158 -29 c35 -38 38 -80 13 -167 -47 -159 -150 -269 -252 -269 -75 0 -119 124 -79 225 5 11 12 32 17 48 5 15 26 51 48 80 79 108 194 146 253 83z" fill="#e0e0e6"/>
<path d="M1955 1874 c-39 -59 7 -164 123 -283 80 -82 175 -121 221 -92 25 16 16 96 -20 167 -38 78 -147 195 -203 218 -59 24 -100 21 -121 -10z m111 -13 c72 -35 197 -184 225 -268 15 -46 5 -83 -23 -83 -97 0 -252 140 -303 272 -16 44 -16 49 -1 73 20 30 48 32 102 6z" fill="#e0e0e6"/>
<path d="M844 746 c-10 -8 -16 -17 -13 -20 10 -10 61 13 54 24 -8 14 -18 13 -41 -4z" fill="#e0e0e6"/>
<path d="M1179 4549 c-20 -15 -21 -19 -10 -33 10 -12 32 -16 85 -16 91 0 187 -30 226 -70 28 -29 61 -52 54 -38 -40 75 -162 149 -272 165 -51 8 -64 7 -83 -8z" fill="#e0e0e6"/>
</g>
</svg>